solid OpenSCAD_Model
  facet normal -0.453988 0.891008 0
    outer loop
      vertex -9.298 20.8836 0
      vertex -11.43 19.7973 22.86
      vertex -9.298 20.8836 22.86
    endloop
  endfacet
  facet normal -0.453988 0.891008 0
    outer loop
      vertex -11.43 19.7973 22.86
      vertex -9.298 20.8836 0
      vertex -11.43 19.7973 0
    endloop
  endfacet
  facet normal 0.987689 0.156428 0
    outer loop
      vertex 22.7348 2.38952 22.86
      vertex 22.3605 4.75286 0
      vertex 22.3605 4.75286 22.86
    endloop
  endfacet
  facet normal 0.987689 0.156428 0
    outer loop
      vertex 22.3605 4.75286 0
      vertex 22.7348 2.38952 22.86
      vertex 22.7348 2.38952 0
    endloop
  endfacet
  facet normal 0.99863 0.0523237 0
    outer loop
      vertex 22.86 0 22.86
      vertex 22.7348 2.38952 0
      vertex 22.7348 2.38952 22.86
    endloop
  endfacet
  facet normal 0.99863 0.0523237 0
    outer loop
      vertex 22.7348 2.38952 0
      vertex 22.86 0 22.86
      vertex 22.86 0 0
    endloop
  endfacet
  facet normal 0.965926 0.258818 0
    outer loop
      vertex 22.3605 4.75286 22.86
      vertex 21.7412 7.06413 0
      vertex 21.7412 7.06413 22.86
    endloop
  endfacet
  facet normal 0.965926 0.258818 0
    outer loop
      vertex 21.7412 7.06413 0
      vertex 22.3605 4.75286 22.86
      vertex 22.3605 4.75286 0
    endloop
  endfacet
  facet normal 0.156428 0.987689 -0
    outer loop
      vertex 4.75286 22.3605 0
      vertex 2.38952 22.7348 22.86
      vertex 4.75286 22.3605 22.86
    endloop
  endfacet
  facet normal 0.156428 0.987689 0
    outer loop
      vertex 2.38952 22.7348 22.86
      vertex 4.75286 22.3605 0
      vertex 2.38952 22.7348 0
    endloop
  endfacet
  facet normal -0.358404 0.933567 0
    outer loop
      vertex -7.06413 21.7412 0
      vertex -9.298 20.8836 22.86
      vertex -7.06413 21.7412 22.86
    endloop
  endfacet
  facet normal -0.358404 0.933567 0
    outer loop
      vertex -9.298 20.8836 22.86
      vertex -7.06413 21.7412 0
      vertex -9.298 20.8836 0
    endloop
  endfacet
  facet normal 0.453988 -0.891008 0
    outer loop
      vertex 9.298 -20.8836 0
      vertex 11.43 -19.7973 22.86
      vertex 9.298 -20.8836 22.86
    endloop
  endfacet
  facet normal 0.453988 -0.891008 0
    outer loop
      vertex 11.43 -19.7973 22.86
      vertex 9.298 -20.8836 0
      vertex 11.43 -19.7973 0
    endloop
  endfacet
  facet normal 0.707107 0.707107 0
    outer loop
      vertex 16.9883 15.2963 22.86
      vertex 15.2963 16.9883 0
      vertex 15.2963 16.9883 22.86
    endloop
  endfacet
  facet normal 0.707107 0.707107 0
    outer loop
      vertex 15.2963 16.9883 0
      vertex 16.9883 15.2963 22.86
      vertex 16.9883 15.2963 0
    endloop
  endfacet
  facet normal -0.707107 0.707107 0
    outer loop
      vertex -16.9883 15.2963 0
      vertex -15.2963 16.9883 22.86
      vertex -15.2963 16.9883 0
    endloop
  endfacet
  facet normal -0.707107 0.707107 0
    outer loop
      vertex -15.2963 16.9883 22.86
      vertex -16.9883 15.2963 0
      vertex -16.9883 15.2963 22.86
    endloop
  endfacet
  facet normal -0.258818 0.965926 0
    outer loop
      vertex -4.75286 22.3605 0
      vertex -7.06413 21.7412 22.86
      vertex -4.75286 22.3605 22.86
    endloop
  endfacet
  facet normal -0.258818 0.965926 0
    outer loop
      vertex -7.06413 21.7412 22.86
      vertex -4.75286 22.3605 0
      vertex -7.06413 21.7412 0
    endloop
  endfacet
  facet normal -0.838677 -0.54463 0
    outer loop
      vertex -18.4941 -13.4368 0
      vertex -19.7973 -11.43 22.86
      vertex -19.7973 -11.43 0
    endloop
  endfacet
  facet normal -0.838677 -0.54463 0
    outer loop
      vertex -19.7973 -11.43 22.86
      vertex -18.4941 -13.4368 0
      vertex -18.4941 -13.4368 22.86
    endloop
  endfacet
  facet normal 0.933567 0.358404 0
    outer loop
      vertex 21.7412 7.06413 22.86
      vertex 20.8836 9.298 0
      vertex 20.8836 9.298 22.86
    endloop
  endfacet
  facet normal 0.933567 0.358404 0
    outer loop
      vertex 20.8836 9.298 0
      vertex 21.7412 7.06413 22.86
      vertex 21.7412 7.06413 0
    endloop
  endfacet
  facet normal 0.777145 0.629322 0
    outer loop
      vertex 18.4941 13.4368 22.86
      vertex 16.9883 15.2963 0
      vertex 16.9883 15.2963 22.86
    endloop
  endfacet
  facet normal 0.777145 0.629322 0
    outer loop
      vertex 16.9883 15.2963 0
      vertex 18.4941 13.4368 22.86
      vertex 18.4941 13.4368 0
    endloop
  endfacet
  facet normal 0 0 -1
    outer loop
      vertex 22.7348 -2.38952 0
      vertex 22.7348 2.38952 0
      vertex 22.86 0 0
    endloop
  endfacet
  facet normal 0 0 -1
    outer loop
      vertex 22.3605 -4.75286 0
      vertex 22.7348 2.38952 0
      vertex 22.7348 -2.38952 0
    endloop
  endfacet
  facet normal 0 0 -1
    outer loop
      vertex 22.3605 -4.75286 0
      vertex 22.3605 4.75286 0
      vertex 22.7348 2.38952 0
    endloop
  endfacet
  facet normal 0 0 -1
    outer loop
      vertex 21.7412 -7.06413 0
      vertex 22.3605 4.75286 0
      vertex 22.3605 -4.75286 0
    endloop
  endfacet
  facet normal 0 0 -1
    outer loop
      vertex 21.7412 -7.06413 0
      vertex 21.7412 7.06413 0
      vertex 22.3605 4.75286 0
    endloop
  endfacet
  facet normal 0 0 -1
    outer loop
      vertex 20.8836 -9.298 0
      vertex 21.7412 7.06413 0
      vertex 21.7412 -7.06413 0
    endloop
  endfacet
  facet normal 0 0 -1
    outer loop
      vertex 20.8836 -9.298 0
      vertex 20.8836 9.298 0
      vertex 21.7412 7.06413 0
    endloop
  endfacet
  facet normal 0 0 -1
    outer loop
      vertex 19.7973 -11.43 0
      vertex 20.8836 9.298 0
      vertex 20.8836 -9.298 0
    endloop
  endfacet
  facet normal 0 0 -1
    outer loop
      vertex 19.7973 -11.43 0
      vertex 19.7973 11.43 0
      vertex 20.8836 9.298 0
    endloop
  endfacet
  facet normal 0 0 -1
    outer loop
      vertex 18.4941 -13.4368 0
      vertex 19.7973 11.43 0
      vertex 19.7973 -11.43 0
    endloop
  endfacet
  facet normal 0 0 -1
    outer loop
      vertex 18.4941 -13.4368 0
      vertex 18.4941 13.4368 0
      vertex 19.7973 11.43 0
    endloop
  endfacet
  facet normal 0 0 -1
    outer loop
      vertex 16.9883 -15.2963 0
      vertex 18.4941 13.4368 0
      vertex 18.4941 -13.4368 0
    endloop
  endfacet
  facet normal 0 0 -1
    outer loop
      vertex 16.9883 -15.2963 0
      vertex 16.9883 15.2963 0
      vertex 18.4941 13.4368 0
    endloop
  endfacet
  facet normal 0 0 -1
    outer loop
      vertex 15.2963 -16.9883 0
      vertex 16.9883 15.2963 0
      vertex 16.9883 -15.2963 0
    endloop
  endfacet
  facet normal 0 0 -1
    outer loop
      vertex 15.2963 -16.9883 0
      vertex 15.2963 16.9883 0
      vertex 16.9883 15.2963 0
    endloop
  endfacet
  facet normal 0 0 -1
    outer loop
      vertex 13.4368 -18.4941 0
      vertex 15.2963 16.9883 0
      vertex 15.2963 -16.9883 0
    endloop
  endfacet
  facet normal 0 0 -1
    outer loop
      vertex 13.4368 -18.4941 0
      vertex 13.4368 18.4941 0
      vertex 15.2963 16.9883 0
    endloop
  endfacet
  facet normal 0 0 -1
    outer loop
      vertex 11.43 -19.7973 0
      vertex 13.4368 18.4941 0
      vertex 13.4368 -18.4941 0
    endloop
  endfacet
  facet normal 0 0 -1
    outer loop
      vertex 11.43 -19.7973 0
      vertex 11.43 19.7973 0
      vertex 13.4368 18.4941 0
    endloop
  endfacet
  facet normal 0 0 -1
    outer loop
      vertex 9.298 -20.8836 0
      vertex 11.43 19.7973 0
      vertex 11.43 -19.7973 0
    endloop
  endfacet
  facet normal 0 0 -1
    outer loop
      vertex 9.298 -20.8836 0
      vertex 9.298 20.8836 0
      vertex 11.43 19.7973 0
    endloop
  endfacet
  facet normal 0 0 -1
    outer loop
      vertex 7.06413 -21.7412 0
      vertex 9.298 20.8836 0
      vertex 9.298 -20.8836 0
    endloop
  endfacet
  facet normal 0 0 -1
    outer loop
      vertex 7.06413 -21.7412 0
      vertex 7.06413 21.7412 0
      vertex 9.298 20.8836 0
    endloop
  endfacet
  facet normal 0 0 -1
    outer loop
      vertex 4.75286 -22.3605 0
      vertex 7.06413 21.7412 0
      vertex 7.06413 -21.7412 0
    endloop
  endfacet
  facet normal 0 0 -1
    outer loop
      vertex 4.75286 -22.3605 0
      vertex 4.75286 22.3605 0
      vertex 7.06413 21.7412 0
    endloop
  endfacet
  facet normal 0 0 -1
    outer loop
      vertex 2.38952 -22.7348 0
      vertex 4.75286 22.3605 0
      vertex 4.75286 -22.3605 0
    endloop
  endfacet
  facet normal 0 0 -1
    outer loop
      vertex 2.38952 -22.7348 0
      vertex 2.38952 22.7348 0
      vertex 4.75286 22.3605 0
    endloop
  endfacet
  facet normal 0 0 -1
    outer loop
      vertex 0 -22.86 0
      vertex 2.38952 22.7348 0
      vertex 2.38952 -22.7348 0
    endloop
  endfacet
  facet normal 0 0 -1
    outer loop
      vertex 0 -22.86 0
      vertex 0 22.86 0
      vertex 2.38952 22.7348 0
    endloop
  endfacet
  facet normal 0 0 -1
    outer loop
      vertex -2.38952 -22.7348 0
      vertex 0 22.86 0
      vertex 0 -22.86 0
    endloop
  endfacet
  facet normal 0 0 -1
    outer loop
      vertex -2.38952 -22.7348 0
      vertex -2.38952 22.7348 0
      vertex 0 22.86 0
    endloop
  endfacet
  facet normal 0 0 -1
    outer loop
      vertex -4.75286 -22.3605 0
      vertex -2.38952 22.7348 0
      vertex -2.38952 -22.7348 0
    endloop
  endfacet
  facet normal 0 0 -1
    outer loop
      vertex -4.75286 -22.3605 0
      vertex -4.75286 22.3605 0
      vertex -2.38952 22.7348 0
    endloop
  endfacet
  facet normal 0 0 -1
    outer loop
      vertex -7.06413 -21.7412 0
      vertex -4.75286 22.3605 0
      vertex -4.75286 -22.3605 0
    endloop
  endfacet
  facet normal 0 0 -1
    outer loop
      vertex -7.06413 -21.7412 0
      vertex -7.06413 21.7412 0
      vertex -4.75286 22.3605 0
    endloop
  endfacet
  facet normal 0 0 -1
    outer loop
      vertex -9.298 -20.8836 0
      vertex -7.06413 21.7412 0
      vertex -7.06413 -21.7412 0
    endloop
  endfacet
  facet normal 0 0 -1
    outer loop
      vertex -9.298 -20.8836 0
      vertex -9.298 20.8836 0
      vertex -7.06413 21.7412 0
    endloop
  endfacet
  facet normal 0 0 -1
    outer loop
      vertex -11.43 -19.7973 0
      vertex -9.298 20.8836 0
      vertex -9.298 -20.8836 0
    endloop
  endfacet
  facet normal 0 0 -1
    outer loop
      vertex -11.43 -19.7973 0
      vertex -11.43 19.7973 0
      vertex -9.298 20.8836 0
    endloop
  endfacet
  facet normal 0 0 -1
    outer loop
      vertex -13.4368 -18.4941 0
      vertex -11.43 19.7973 0
      vertex -11.43 -19.7973 0
    endloop
  endfacet
  facet normal 0 0 -1
    outer loop
      vertex -13.4368 -18.4941 0
      vertex -13.4368 18.4941 0
      vertex -11.43 19.7973 0
    endloop
  endfacet
  facet normal 0 0 -1
    outer loop
      vertex -15.2963 -16.9883 0
      vertex -13.4368 18.4941 0
      vertex -13.4368 -18.4941 0
    endloop
  endfacet
  facet normal 0 0 -1
    outer loop
      vertex -15.2963 -16.9883 0
      vertex -15.2963 16.9883 0
      vertex -13.4368 18.4941 0
    endloop
  endfacet
  facet normal 0 0 -1
    outer loop
      vertex -16.9883 -15.2963 0
      vertex -15.2963 16.9883 0
      vertex -15.2963 -16.9883 0
    endloop
  endfacet
  facet normal 0 0 -1
    outer loop
      vertex -16.9883 -15.2963 0
      vertex -16.9883 15.2963 0
      vertex -15.2963 16.9883 0
    endloop
  endfacet
  facet normal 0 0 -1
    outer loop
      vertex -18.4941 -13.4368 0
      vertex -16.9883 15.2963 0
      vertex -16.9883 -15.2963 0
    endloop
  endfacet
  facet normal 0 0 -1
    outer loop
      vertex -18.4941 -13.4368 0
      vertex -18.4941 13.4368 0
      vertex -16.9883 15.2963 0
    endloop
  endfacet
  facet normal 0 0 -1
    outer loop
      vertex -19.7973 -11.43 0
      vertex -18.4941 13.4368 0
      vertex -18.4941 -13.4368 0
    endloop
  endfacet
  facet normal 0 0 -1
    outer loop
      vertex -19.7973 -11.43 0
      vertex -19.7973 11.43 0
      vertex -18.4941 13.4368 0
    endloop
  endfacet
  facet normal 0 0 -1
    outer loop
      vertex -20.8836 -9.298 0
      vertex -19.7973 11.43 0
      vertex -19.7973 -11.43 0
    endloop
  endfacet
  facet normal 0 0 -1
    outer loop
      vertex -20.8836 -9.298 0
      vertex -20.8836 9.298 0
      vertex -19.7973 11.43 0
    endloop
  endfacet
  facet normal 0 0 -1
    outer loop
      vertex -21.7412 -7.06413 0
      vertex -20.8836 9.298 0
      vertex -20.8836 -9.298 0
    endloop
  endfacet
  facet normal 0 0 -1
    outer loop
      vertex -21.7412 -7.06413 0
      vertex -21.7412 7.06413 0
      vertex -20.8836 9.298 0
    endloop
  endfacet
  facet normal 0 0 -1
    outer loop
      vertex -22.3605 -4.75286 0
      vertex -21.7412 7.06413 0
      vertex -21.7412 -7.06413 0
    endloop
  endfacet
  facet normal 0 0 -1
    outer loop
      vertex -22.3605 -4.75286 0
      vertex -22.3605 4.75286 0
      vertex -21.7412 7.06413 0
    endloop
  endfacet
  facet normal 0 0 -1
    outer loop
      vertex -22.7348 -2.38952 0
      vertex -22.3605 4.75286 0
      vertex -22.3605 -4.75286 0
    endloop
  endfacet
  facet normal 0 0 -1
    outer loop
      vertex -22.7348 -2.38952 0
      vertex -22.7348 2.38952 0
      vertex -22.3605 4.75286 0
    endloop
  endfacet
  facet normal 0 -0 -1
    outer loop
      vertex -22.7348 2.38952 0
      vertex -22.7348 -2.38952 0
      vertex -22.86 0 0
    endloop
  endfacet
  facet normal 0.54463 -0.838677 0
    outer loop
      vertex 11.43 -19.7973 0
      vertex 13.4368 -18.4941 22.86
      vertex 11.43 -19.7973 22.86
    endloop
  endfacet
  facet normal 0.54463 -0.838677 0
    outer loop
      vertex 13.4368 -18.4941 22.86
      vertex 11.43 -19.7973 0
      vertex 13.4368 -18.4941 0
    endloop
  endfacet
  facet normal 0.99863 -0.0523237 0
    outer loop
      vertex 22.7348 -2.38952 22.86
      vertex 22.86 0 0
      vertex 22.86 0 22.86
    endloop
  endfacet
  facet normal 0.99863 -0.0523237 0
    outer loop
      vertex 22.86 0 0
      vertex 22.7348 -2.38952 22.86
      vertex 22.7348 -2.38952 0
    endloop
  endfacet
  facet normal 0.258818 0.965926 -0
    outer loop
      vertex 7.06413 21.7412 0
      vertex 4.75286 22.3605 22.86
      vertex 7.06413 21.7412 22.86
    endloop
  endfacet
  facet normal 0.258818 0.965926 0
    outer loop
      vertex 4.75286 22.3605 22.86
      vertex 7.06413 21.7412 0
      vertex 4.75286 22.3605 0
    endloop
  endfacet
  facet normal -0.777145 -0.629322 0
    outer loop
      vertex -16.9883 -15.2963 0
      vertex -18.4941 -13.4368 22.86
      vertex -18.4941 -13.4368 0
    endloop
  endfacet
  facet normal -0.777145 -0.629322 0
    outer loop
      vertex -18.4941 -13.4368 22.86
      vertex -16.9883 -15.2963 0
      vertex -16.9883 -15.2963 22.86
    endloop
  endfacet
  facet normal -0.629322 0.777145 0
    outer loop
      vertex -13.4368 18.4941 0
      vertex -15.2963 16.9883 22.86
      vertex -13.4368 18.4941 22.86
    endloop
  endfacet
  facet normal -0.629322 0.777145 0
    outer loop
      vertex -15.2963 16.9883 22.86
      vertex -13.4368 18.4941 0
      vertex -15.2963 16.9883 0
    endloop
  endfacet
  facet normal 0.0523237 -0.99863 0
    outer loop
      vertex 0 -22.86 0
      vertex 2.38952 -22.7348 22.86
      vertex 0 -22.86 22.86
    endloop
  endfacet
  facet normal 0.0523237 -0.99863 0
    outer loop
      vertex 2.38952 -22.7348 22.86
      vertex 0 -22.86 0
      vertex 2.38952 -22.7348 0
    endloop
  endfacet
  facet normal 0.156428 -0.987689 0
    outer loop
      vertex 2.38952 -22.7348 0
      vertex 4.75286 -22.3605 22.86
      vertex 2.38952 -22.7348 22.86
    endloop
  endfacet
  facet normal 0.156428 -0.987689 0
    outer loop
      vertex 4.75286 -22.3605 22.86
      vertex 2.38952 -22.7348 0
      vertex 4.75286 -22.3605 0
    endloop
  endfacet
  facet normal 0.838677 0.54463 0
    outer loop
      vertex 19.7973 11.43 22.86
      vertex 18.4941 13.4368 0
      vertex 18.4941 13.4368 22.86
    endloop
  endfacet
  facet normal 0.838677 0.54463 0
    outer loop
      vertex 18.4941 13.4368 0
      vertex 19.7973 11.43 22.86
      vertex 19.7973 11.43 0
    endloop
  endfacet
  facet normal 0.838677 -0.54463 0
    outer loop
      vertex 18.4941 -13.4368 22.86
      vertex 19.7973 -11.43 0
      vertex 19.7973 -11.43 22.86
    endloop
  endfacet
  facet normal 0.838677 -0.54463 0
    outer loop
      vertex 19.7973 -11.43 0
      vertex 18.4941 -13.4368 22.86
      vertex 18.4941 -13.4368 0
    endloop
  endfacet
  facet normal -0.453988 -0.891008 0
    outer loop
      vertex -11.43 -19.7973 0
      vertex -9.298 -20.8836 22.86
      vertex -11.43 -19.7973 22.86
    endloop
  endfacet
  facet normal -0.453988 -0.891008 -0
    outer loop
      vertex -9.298 -20.8836 22.86
      vertex -11.43 -19.7973 0
      vertex -9.298 -20.8836 0
    endloop
  endfacet
  facet normal -0.0523237 0.99863 0
    outer loop
      vertex 0 22.86 0
      vertex -2.38952 22.7348 22.86
      vertex 0 22.86 22.86
    endloop
  endfacet
  facet normal -0.0523237 0.99863 0
    outer loop
      vertex -2.38952 22.7348 22.86
      vertex 0 22.86 0
      vertex -2.38952 22.7348 0
    endloop
  endfacet
  facet normal 0.358404 0.933567 -0
    outer loop
      vertex 9.298 20.8836 0
      vertex 7.06413 21.7412 22.86
      vertex 9.298 20.8836 22.86
    endloop
  endfacet
  facet normal 0.358404 0.933567 0
    outer loop
      vertex 7.06413 21.7412 22.86
      vertex 9.298 20.8836 0
      vertex 7.06413 21.7412 0
    endloop
  endfacet
  facet normal 0.891008 0.453988 0
    outer loop
      vertex 20.8836 9.298 22.86
      vertex 19.7973 11.43 0
      vertex 19.7973 11.43 22.86
    endloop
  endfacet
  facet normal 0.891008 0.453988 0
    outer loop
      vertex 19.7973 11.43 0
      vertex 20.8836 9.298 22.86
      vertex 20.8836 9.298 0
    endloop
  endfacet
  facet normal 0.965926 -0.258818 0
    outer loop
      vertex 21.7412 -7.06413 22.86
      vertex 22.3605 -4.75286 0
      vertex 22.3605 -4.75286 22.86
    endloop
  endfacet
  facet normal 0.965926 -0.258818 0
    outer loop
      vertex 22.3605 -4.75286 0
      vertex 21.7412 -7.06413 22.86
      vertex 21.7412 -7.06413 0
    endloop
  endfacet
  facet normal 0.358404 -0.933567 0
    outer loop
      vertex 7.06413 -21.7412 0
      vertex 9.298 -20.8836 22.86
      vertex 7.06413 -21.7412 22.86
    endloop
  endfacet
  facet normal 0.358404 -0.933567 0
    outer loop
      vertex 9.298 -20.8836 22.86
      vertex 7.06413 -21.7412 0
      vertex 9.298 -20.8836 0
    endloop
  endfacet
  facet normal 0.629322 0.777145 -0
    outer loop
      vertex 15.2963 16.9883 0
      vertex 13.4368 18.4941 22.86
      vertex 15.2963 16.9883 22.86
    endloop
  endfacet
  facet normal 0.629322 0.777145 0
    outer loop
      vertex 13.4368 18.4941 22.86
      vertex 15.2963 16.9883 0
      vertex 13.4368 18.4941 0
    endloop
  endfacet
  facet normal 0.0523237 0.99863 -0
    outer loop
      vertex 2.38952 22.7348 0
      vertex 0 22.86 22.86
      vertex 2.38952 22.7348 22.86
    endloop
  endfacet
  facet normal 0.0523237 0.99863 0
    outer loop
      vertex 0 22.86 22.86
      vertex 2.38952 22.7348 0
      vertex 0 22.86 0
    endloop
  endfacet
  facet normal 0.258818 -0.965926 0
    outer loop
      vertex 4.75286 -22.3605 0
      vertex 7.06413 -21.7412 22.86
      vertex 4.75286 -22.3605 22.86
    endloop
  endfacet
  facet normal 0.258818 -0.965926 0
    outer loop
      vertex 7.06413 -21.7412 22.86
      vertex 4.75286 -22.3605 0
      vertex 7.06413 -21.7412 0
    endloop
  endfacet
  facet normal 0.891008 -0.453988 0
    outer loop
      vertex 19.7973 -11.43 22.86
      vertex 20.8836 -9.298 0
      vertex 20.8836 -9.298 22.86
    endloop
  endfacet
  facet normal 0.891008 -0.453988 0
    outer loop
      vertex 20.8836 -9.298 0
      vertex 19.7973 -11.43 22.86
      vertex 19.7973 -11.43 0
    endloop
  endfacet
  facet normal -0.258818 -0.965926 0
    outer loop
      vertex -7.06413 -21.7412 0
      vertex -4.75286 -22.3605 22.86
      vertex -7.06413 -21.7412 22.86
    endloop
  endfacet
  facet normal -0.258818 -0.965926 -0
    outer loop
      vertex -4.75286 -22.3605 22.86
      vertex -7.06413 -21.7412 0
      vertex -4.75286 -22.3605 0
    endloop
  endfacet
  facet normal 0.777145 -0.629322 0
    outer loop
      vertex 16.9883 -15.2963 22.86
      vertex 18.4941 -13.4368 0
      vertex 18.4941 -13.4368 22.86
    endloop
  endfacet
  facet normal 0.777145 -0.629322 0
    outer loop
      vertex 18.4941 -13.4368 0
      vertex 16.9883 -15.2963 22.86
      vertex 16.9883 -15.2963 0
    endloop
  endfacet
  facet normal -0.707107 -0.707107 0
    outer loop
      vertex -15.2963 -16.9883 0
      vertex -16.9883 -15.2963 22.86
      vertex -16.9883 -15.2963 0
    endloop
  endfacet
  facet normal -0.707107 -0.707107 0
    outer loop
      vertex -16.9883 -15.2963 22.86
      vertex -15.2963 -16.9883 0
      vertex -15.2963 -16.9883 22.86
    endloop
  endfacet
  facet normal -0.156428 0.987689 0
    outer loop
      vertex -2.38952 22.7348 0
      vertex -4.75286 22.3605 22.86
      vertex -2.38952 22.7348 22.86
    endloop
  endfacet
  facet normal -0.156428 0.987689 0
    outer loop
      vertex -4.75286 22.3605 22.86
      vertex -2.38952 22.7348 0
      vertex -4.75286 22.3605 0
    endloop
  endfacet
  facet normal 0.54463 0.838677 -0
    outer loop
      vertex 13.4368 18.4941 0
      vertex 11.43 19.7973 22.86
      vertex 13.4368 18.4941 22.86
    endloop
  endfacet
  facet normal 0.54463 0.838677 0
    outer loop
      vertex 11.43 19.7973 22.86
      vertex 13.4368 18.4941 0
      vertex 11.43 19.7973 0
    endloop
  endfacet
  facet normal -0.891008 -0.453988 0
    outer loop
      vertex -19.7973 -11.43 0
      vertex -20.8836 -9.298 22.86
      vertex -20.8836 -9.298 0
    endloop
  endfacet
  facet normal -0.891008 -0.453988 0
    outer loop
      vertex -20.8836 -9.298 22.86
      vertex -19.7973 -11.43 0
      vertex -19.7973 -11.43 22.86
    endloop
  endfacet
  facet normal -0.777145 0.629322 0
    outer loop
      vertex -18.4941 13.4368 0
      vertex -16.9883 15.2963 22.86
      vertex -16.9883 15.2963 0
    endloop
  endfacet
  facet normal -0.777145 0.629322 0
    outer loop
      vertex -16.9883 15.2963 22.86
      vertex -18.4941 13.4368 0
      vertex -18.4941 13.4368 22.86
    endloop
  endfacet
  facet normal 0.987689 -0.156428 0
    outer loop
      vertex 22.3605 -4.75286 22.86
      vertex 22.7348 -2.38952 0
      vertex 22.7348 -2.38952 22.86
    endloop
  endfacet
  facet normal 0.987689 -0.156428 0
    outer loop
      vertex 22.7348 -2.38952 0
      vertex 22.3605 -4.75286 22.86
      vertex 22.3605 -4.75286 0
    endloop
  endfacet
  facet normal -0.838677 0.54463 0
    outer loop
      vertex -19.7973 11.43 0
      vertex -18.4941 13.4368 22.86
      vertex -18.4941 13.4368 0
    endloop
  endfacet
  facet normal -0.838677 0.54463 0
    outer loop
      vertex -18.4941 13.4368 22.86
      vertex -19.7973 11.43 0
      vertex -19.7973 11.43 22.86
    endloop
  endfacet
  facet normal -0.987689 0.156428 0
    outer loop
      vertex -22.7348 2.38952 0
      vertex -22.3605 4.75286 22.86
      vertex -22.3605 4.75286 0
    endloop
  endfacet
  facet normal -0.987689 0.156428 0
    outer loop
      vertex -22.3605 4.75286 22.86
      vertex -22.7348 2.38952 0
      vertex -22.7348 2.38952 22.86
    endloop
  endfacet
  facet normal 0.453988 0.891008 -0
    outer loop
      vertex 11.43 19.7973 0
      vertex 9.298 20.8836 22.86
      vertex 11.43 19.7973 22.86
    endloop
  endfacet
  facet normal 0.453988 0.891008 0
    outer loop
      vertex 9.298 20.8836 22.86
      vertex 11.43 19.7973 0
      vertex 9.298 20.8836 0
    endloop
  endfacet
  facet normal -0.933567 0.358404 0
    outer loop
      vertex -21.7412 7.06413 0
      vertex -20.8836 9.298 22.86
      vertex -20.8836 9.298 0
    endloop
  endfacet
  facet normal -0.933567 0.358404 0
    outer loop
      vertex -20.8836 9.298 22.86
      vertex -21.7412 7.06413 0
      vertex -21.7412 7.06413 22.86
    endloop
  endfacet
  facet normal -0.891008 0.453988 0
    outer loop
      vertex -20.8836 9.298 0
      vertex -19.7973 11.43 22.86
      vertex -19.7973 11.43 0
    endloop
  endfacet
  facet normal -0.891008 0.453988 0
    outer loop
      vertex -19.7973 11.43 22.86
      vertex -20.8836 9.298 0
      vertex -20.8836 9.298 22.86
    endloop
  endfacet
  facet normal -0.965926 -0.258818 0
    outer loop
      vertex -21.7412 -7.06413 0
      vertex -22.3605 -4.75286 22.86
      vertex -22.3605 -4.75286 0
    endloop
  endfacet
  facet normal -0.965926 -0.258818 0
    outer loop
      vertex -22.3605 -4.75286 22.86
      vertex -21.7412 -7.06413 0
      vertex -21.7412 -7.06413 22.86
    endloop
  endfacet
  facet normal -0.933567 -0.358404 0
    outer loop
      vertex -20.8836 -9.298 0
      vertex -21.7412 -7.06413 22.86
      vertex -21.7412 -7.06413 0
    endloop
  endfacet
  facet normal -0.933567 -0.358404 0
    outer loop
      vertex -21.7412 -7.06413 22.86
      vertex -20.8836 -9.298 0
      vertex -20.8836 -9.298 22.86
    endloop
  endfacet
  facet normal 0.629322 -0.777145 0
    outer loop
      vertex 13.4368 -18.4941 0
      vertex 15.2963 -16.9883 22.86
      vertex 13.4368 -18.4941 22.86
    endloop
  endfacet
  facet normal 0.629322 -0.777145 0
    outer loop
      vertex 15.2963 -16.9883 22.86
      vertex 13.4368 -18.4941 0
      vertex 15.2963 -16.9883 0
    endloop
  endfacet
  facet normal -0.987689 -0.156428 0
    outer loop
      vertex -22.3605 -4.75286 0
      vertex -22.7348 -2.38952 22.86
      vertex -22.7348 -2.38952 0
    endloop
  endfacet
  facet normal -0.987689 -0.156428 0
    outer loop
      vertex -22.7348 -2.38952 22.86
      vertex -22.3605 -4.75286 0
      vertex -22.3605 -4.75286 22.86
    endloop
  endfacet
  facet normal -0.99863 -0.0523237 0
    outer loop
      vertex -22.7348 -2.38952 0
      vertex -22.86 0 22.86
      vertex -22.86 0 0
    endloop
  endfacet
  facet normal -0.99863 -0.0523237 0
    outer loop
      vertex -22.86 0 22.86
      vertex -22.7348 -2.38952 0
      vertex -22.7348 -2.38952 22.86
    endloop
  endfacet
  facet normal -0.965926 0.258818 0
    outer loop
      vertex -22.3605 4.75286 0
      vertex -21.7412 7.06413 22.86
      vertex -21.7412 7.06413 0
    endloop
  endfacet
  facet normal -0.965926 0.258818 0
    outer loop
      vertex -21.7412 7.06413 22.86
      vertex -22.3605 4.75286 0
      vertex -22.3605 4.75286 22.86
    endloop
  endfacet
  facet normal 0 0 1
    outer loop
      vertex 19.3675 0 22.86
      vertex 22.86 0 22.86
      vertex 22.7348 2.38952 22.86
    endloop
  endfacet
  facet normal 0 0 1
    outer loop
      vertex 19.2614 2.02445 22.86
      vertex 22.7348 2.38952 22.86
      vertex 22.3605 4.75286 22.86
    endloop
  endfacet
  facet normal 0 0 1
    outer loop
      vertex 22.86 0 22.86
      vertex 19.3675 0 22.86
      vertex 22.7348 -2.38952 22.86
    endloop
  endfacet
  facet normal 0 0 1
    outer loop
      vertex 18.9443 4.02673 22.86
      vertex 22.3605 4.75286 22.86
      vertex 21.7412 7.06413 22.86
    endloop
  endfacet
  facet normal -0 0 1
    outer loop
      vertex 19.2614 -2.02445 22.86
      vertex 22.7348 -2.38952 22.86
      vertex 19.3675 0 22.86
    endloop
  endfacet
  facet normal 0 0 1
    outer loop
      vertex 18.4196 5.98489 22.86
      vertex 21.7412 7.06413 22.86
      vertex 20.8836 9.298 22.86
    endloop
  endfacet
  facet normal 0 0 1
    outer loop
      vertex 22.7348 -2.38952 22.86
      vertex 19.2614 -2.02445 22.86
      vertex 22.3605 -4.75286 22.86
    endloop
  endfacet
  facet normal 0 0 1
    outer loop
      vertex 17.6931 7.87747 22.86
      vertex 20.8836 9.298 22.86
      vertex 19.7973 11.43 22.86
    endloop
  endfacet
  facet normal -0 0 1
    outer loop
      vertex 18.9443 -4.02673 22.86
      vertex 22.3605 -4.75286 22.86
      vertex 19.2614 -2.02445 22.86
    endloop
  endfacet
  facet normal 0 0 1
    outer loop
      vertex 22.3605 -4.75286 22.86
      vertex 18.9443 -4.02673 22.86
      vertex 21.7412 -7.06413 22.86
    endloop
  endfacet
  facet normal 0 0 1
    outer loop
      vertex 22.7348 2.38952 22.86
      vertex 19.2614 2.02445 22.86
      vertex 19.3675 0 22.86
    endloop
  endfacet
  facet normal 0 0 1
    outer loop
      vertex 22.3605 4.75286 22.86
      vertex 18.9443 4.02673 22.86
      vertex 19.2614 2.02445 22.86
    endloop
  endfacet
  facet normal 0 0 1
    outer loop
      vertex 16.7727 9.68375 22.86
      vertex 19.7973 11.43 22.86
      vertex 18.4941 13.4368 22.86
    endloop
  endfacet
  facet normal 0 0 1
    outer loop
      vertex 21.7412 7.06413 22.86
      vertex 18.4196 5.98489 22.86
      vertex 18.9443 4.02673 22.86
    endloop
  endfacet
  facet normal 0 0 1
    outer loop
      vertex 20.8836 9.298 22.86
      vertex 17.6931 7.87747 22.86
      vertex 18.4196 5.98489 22.86
    endloop
  endfacet
  facet normal 0 0 1
    outer loop
      vertex 15.6686 11.3839 22.86
      vertex 18.4941 13.4368 22.86
      vertex 16.9883 15.2963 22.86
    endloop
  endfacet
  facet normal 0 0 1
    outer loop
      vertex 19.7973 11.43 22.86
      vertex 16.7727 9.68375 22.86
      vertex 17.6931 7.87747 22.86
    endloop
  endfacet
  facet normal 0 0 1
    outer loop
      vertex 18.4941 13.4368 22.86
      vertex 15.6686 11.3839 22.86
      vertex 16.7727 9.68375 22.86
    endloop
  endfacet
  facet normal 0 0 1
    outer loop
      vertex 14.3929 12.9594 22.86
      vertex 16.9883 15.2963 22.86
      vertex 15.2963 16.9883 22.86
    endloop
  endfacet
  facet normal 0 0 1
    outer loop
      vertex 16.9883 15.2963 22.86
      vertex 14.3929 12.9594 22.86
      vertex 15.6686 11.3839 22.86
    endloop
  endfacet
  facet normal 0 0 1
    outer loop
      vertex 12.9594 14.3929 22.86
      vertex 15.2963 16.9883 22.86
      vertex 13.4368 18.4941 22.86
    endloop
  endfacet
  facet normal 0 0 1
    outer loop
      vertex 15.2963 16.9883 22.86
      vertex 12.9594 14.3929 22.86
      vertex 14.3929 12.9594 22.86
    endloop
  endfacet
  facet normal 0 0 1
    outer loop
      vertex 11.3839 15.6686 22.86
      vertex 13.4368 18.4941 22.86
      vertex 11.43 19.7973 22.86
    endloop
  endfacet
  facet normal 0 0 1
    outer loop
      vertex 13.4368 18.4941 22.86
      vertex 11.3839 15.6686 22.86
      vertex 12.9594 14.3929 22.86
    endloop
  endfacet
  facet normal 0 0 1
    outer loop
      vertex 11.43 19.7973 22.86
      vertex 9.68375 16.7727 22.86
      vertex 11.3839 15.6686 22.86
    endloop
  endfacet
  facet normal 0 0 1
    outer loop
      vertex 9.298 20.8836 22.86
      vertex 9.68375 16.7727 22.86
      vertex 11.43 19.7973 22.86
    endloop
  endfacet
  facet normal 0 0 1
    outer loop
      vertex 9.298 20.8836 22.86
      vertex 7.87747 17.6931 22.86
      vertex 9.68375 16.7727 22.86
    endloop
  endfacet
  facet normal 0 0 1
    outer loop
      vertex 7.06413 21.7412 22.86
      vertex 7.87747 17.6931 22.86
      vertex 9.298 20.8836 22.86
    endloop
  endfacet
  facet normal 0 0 1
    outer loop
      vertex 7.06413 21.7412 22.86
      vertex 5.98489 18.4196 22.86
      vertex 7.87747 17.6931 22.86
    endloop
  endfacet
  facet normal 0 0 1
    outer loop
      vertex 4.75286 22.3605 22.86
      vertex 5.98489 18.4196 22.86
      vertex 7.06413 21.7412 22.86
    endloop
  endfacet
  facet normal 0 0 1
    outer loop
      vertex 4.75286 22.3605 22.86
      vertex 4.02673 18.9443 22.86
      vertex 5.98489 18.4196 22.86
    endloop
  endfacet
  facet normal 0 0 1
    outer loop
      vertex 2.38952 22.7348 22.86
      vertex 4.02673 18.9443 22.86
      vertex 4.75286 22.3605 22.86
    endloop
  endfacet
  facet normal 0 0 1
    outer loop
      vertex 2.38952 22.7348 22.86
      vertex 2.02445 19.2614 22.86
      vertex 4.02673 18.9443 22.86
    endloop
  endfacet
  facet normal 0 0 1
    outer loop
      vertex 0 22.86 22.86
      vertex 2.02445 19.2614 22.86
      vertex 2.38952 22.7348 22.86
    endloop
  endfacet
  facet normal 0 0 1
    outer loop
      vertex 0 22.86 22.86
      vertex 0 19.3675 22.86
      vertex 2.02445 19.2614 22.86
    endloop
  endfacet
  facet normal 0 0 1
    outer loop
      vertex 0 22.86 22.86
      vertex -2.02445 19.2614 22.86
      vertex 0 19.3675 22.86
    endloop
  endfacet
  facet normal -0 0 1
    outer loop
      vertex -2.38952 22.7348 22.86
      vertex -2.02445 19.2614 22.86
      vertex 0 22.86 22.86
    endloop
  endfacet
  facet normal 0 0 1
    outer loop
      vertex -2.38952 22.7348 22.86
      vertex -4.02673 18.9443 22.86
      vertex -2.02445 19.2614 22.86
    endloop
  endfacet
  facet normal -0 0 1
    outer loop
      vertex -4.75286 22.3605 22.86
      vertex -4.02673 18.9443 22.86
      vertex -2.38952 22.7348 22.86
    endloop
  endfacet
  facet normal 0 0 1
    outer loop
      vertex -4.75286 22.3605 22.86
      vertex -5.98489 18.4196 22.86
      vertex -4.02673 18.9443 22.86
    endloop
  endfacet
  facet normal -0 0 1
    outer loop
      vertex -7.06413 21.7412 22.86
      vertex -5.98489 18.4196 22.86
      vertex -4.75286 22.3605 22.86
    endloop
  endfacet
  facet normal 0 0 1
    outer loop
      vertex -7.06413 21.7412 22.86
      vertex -7.87747 17.6931 22.86
      vertex -5.98489 18.4196 22.86
    endloop
  endfacet
  facet normal -0 0 1
    outer loop
      vertex -9.298 20.8836 22.86
      vertex -7.87747 17.6931 22.86
      vertex -7.06413 21.7412 22.86
    endloop
  endfacet
  facet normal 0 0 1
    outer loop
      vertex -9.298 20.8836 22.86
      vertex -9.68375 16.7727 22.86
      vertex -7.87747 17.6931 22.86
    endloop
  endfacet
  facet normal -0 0 1
    outer loop
      vertex -11.43 19.7973 22.86
      vertex -9.68375 16.7727 22.86
      vertex -9.298 20.8836 22.86
    endloop
  endfacet
  facet normal 0 0 1
    outer loop
      vertex -9.68375 16.7727 22.86
      vertex -11.43 19.7973 22.86
      vertex -11.3839 15.6686 22.86
    endloop
  endfacet
  facet normal -0 0 1
    outer loop
      vertex -13.4368 18.4941 22.86
      vertex -11.3839 15.6686 22.86
      vertex -11.43 19.7973 22.86
    endloop
  endfacet
  facet normal 0 0 1
    outer loop
      vertex -11.3839 15.6686 22.86
      vertex -13.4368 18.4941 22.86
      vertex -12.9594 14.3929 22.86
    endloop
  endfacet
  facet normal -0 0 1
    outer loop
      vertex -15.2963 16.9883 22.86
      vertex -12.9594 14.3929 22.86
      vertex -13.4368 18.4941 22.86
    endloop
  endfacet
  facet normal 0 0 1
    outer loop
      vertex -12.9594 14.3929 22.86
      vertex -15.2963 16.9883 22.86
      vertex -14.3929 12.9594 22.86
    endloop
  endfacet
  facet normal -0 0 1
    outer loop
      vertex -16.9883 15.2963 22.86
      vertex -14.3929 12.9594 22.86
      vertex -15.2963 16.9883 22.86
    endloop
  endfacet
  facet normal 0 0 1
    outer loop
      vertex -14.3929 12.9594 22.86
      vertex -16.9883 15.2963 22.86
      vertex -15.6686 11.3839 22.86
    endloop
  endfacet
  facet normal -0 0 1
    outer loop
      vertex -18.4941 13.4368 22.86
      vertex -15.6686 11.3839 22.86
      vertex -16.9883 15.2963 22.86
    endloop
  endfacet
  facet normal 0 0 1
    outer loop
      vertex -15.6686 11.3839 22.86
      vertex -18.4941 13.4368 22.86
      vertex -16.7727 9.68375 22.86
    endloop
  endfacet
  facet normal -0 0 1
    outer loop
      vertex -19.7973 11.43 22.86
      vertex -16.7727 9.68375 22.86
      vertex -18.4941 13.4368 22.86
    endloop
  endfacet
  facet normal 0 0 1
    outer loop
      vertex -16.7727 9.68375 22.86
      vertex -19.7973 11.43 22.86
      vertex -17.6931 7.87747 22.86
    endloop
  endfacet
  facet normal -0 0 1
    outer loop
      vertex -20.8836 9.298 22.86
      vertex -17.6931 7.87747 22.86
      vertex -19.7973 11.43 22.86
    endloop
  endfacet
  facet normal 0 0 1
    outer loop
      vertex -17.6931 7.87747 22.86
      vertex -20.8836 9.298 22.86
      vertex -18.4196 5.98489 22.86
    endloop
  endfacet
  facet normal 0 0 1
    outer loop
      vertex -18.4196 5.98489 22.86
      vertex -21.7412 7.06413 22.86
      vertex -18.9443 4.02673 22.86
    endloop
  endfacet
  facet normal -0 0 1
    outer loop
      vertex -21.7412 7.06413 22.86
      vertex -18.4196 5.98489 22.86
      vertex -20.8836 9.298 22.86
    endloop
  endfacet
  facet normal -0 0 1
    outer loop
      vertex 18.4196 -5.98489 22.86
      vertex 21.7412 -7.06413 22.86
      vertex 18.9443 -4.02673 22.86
    endloop
  endfacet
  facet normal 0 0 1
    outer loop
      vertex 21.7412 -7.06413 22.86
      vertex 18.4196 -5.98489 22.86
      vertex 20.8836 -9.298 22.86
    endloop
  endfacet
  facet normal -0 0 1
    outer loop
      vertex 17.6931 -7.87747 22.86
      vertex 20.8836 -9.298 22.86
      vertex 18.4196 -5.98489 22.86
    endloop
  endfacet
  facet normal 0 0 1
    outer loop
      vertex 20.8836 -9.298 22.86
      vertex 17.6931 -7.87747 22.86
      vertex 19.7973 -11.43 22.86
    endloop
  endfacet
  facet normal -0 0 1
    outer loop
      vertex 16.7727 -9.68375 22.86
      vertex 19.7973 -11.43 22.86
      vertex 17.6931 -7.87747 22.86
    endloop
  endfacet
  facet normal 0 0 1
    outer loop
      vertex 19.7973 -11.43 22.86
      vertex 16.7727 -9.68375 22.86
      vertex 18.4941 -13.4368 22.86
    endloop
  endfacet
  facet normal -0 0 1
    outer loop
      vertex 15.6686 -11.3839 22.86
      vertex 18.4941 -13.4368 22.86
      vertex 16.7727 -9.68375 22.86
    endloop
  endfacet
  facet normal 0 0 1
    outer loop
      vertex 18.4941 -13.4368 22.86
      vertex 15.6686 -11.3839 22.86
      vertex 16.9883 -15.2963 22.86
    endloop
  endfacet
  facet normal -0 0 1
    outer loop
      vertex 14.3929 -12.9594 22.86
      vertex 16.9883 -15.2963 22.86
      vertex 15.6686 -11.3839 22.86
    endloop
  endfacet
  facet normal 0 0 1
    outer loop
      vertex 16.9883 -15.2963 22.86
      vertex 14.3929 -12.9594 22.86
      vertex 15.2963 -16.9883 22.86
    endloop
  endfacet
  facet normal -0 0 1
    outer loop
      vertex 12.9594 -14.3929 22.86
      vertex 15.2963 -16.9883 22.86
      vertex 14.3929 -12.9594 22.86
    endloop
  endfacet
  facet normal 0 0 1
    outer loop
      vertex 15.2963 -16.9883 22.86
      vertex 12.9594 -14.3929 22.86
      vertex 13.4368 -18.4941 22.86
    endloop
  endfacet
  facet normal -0 0 1
    outer loop
      vertex 11.3839 -15.6686 22.86
      vertex 13.4368 -18.4941 22.86
      vertex 12.9594 -14.3929 22.86
    endloop
  endfacet
  facet normal 0 0 1
    outer loop
      vertex 13.4368 -18.4941 22.86
      vertex 11.3839 -15.6686 22.86
      vertex 11.43 -19.7973 22.86
    endloop
  endfacet
  facet normal -0 0 1
    outer loop
      vertex 9.68375 -16.7727 22.86
      vertex 11.43 -19.7973 22.86
      vertex 11.3839 -15.6686 22.86
    endloop
  endfacet
  facet normal 0 0 1
    outer loop
      vertex 9.68375 -16.7727 22.86
      vertex 9.298 -20.8836 22.86
      vertex 11.43 -19.7973 22.86
    endloop
  endfacet
  facet normal -0 0 1
    outer loop
      vertex 7.87747 -17.6931 22.86
      vertex 9.298 -20.8836 22.86
      vertex 9.68375 -16.7727 22.86
    endloop
  endfacet
  facet normal 0 0 1
    outer loop
      vertex 7.87747 -17.6931 22.86
      vertex 7.06413 -21.7412 22.86
      vertex 9.298 -20.8836 22.86
    endloop
  endfacet
  facet normal -0 0 1
    outer loop
      vertex 5.98489 -18.4196 22.86
      vertex 7.06413 -21.7412 22.86
      vertex 7.87747 -17.6931 22.86
    endloop
  endfacet
  facet normal 0 0 1
    outer loop
      vertex 5.98489 -18.4196 22.86
      vertex 4.75286 -22.3605 22.86
      vertex 7.06413 -21.7412 22.86
    endloop
  endfacet
  facet normal -0 0 1
    outer loop
      vertex 4.02673 -18.9443 22.86
      vertex 4.75286 -22.3605 22.86
      vertex 5.98489 -18.4196 22.86
    endloop
  endfacet
  facet normal 0 0 1
    outer loop
      vertex 4.02673 -18.9443 22.86
      vertex 2.38952 -22.7348 22.86
      vertex 4.75286 -22.3605 22.86
    endloop
  endfacet
  facet normal -0 0 1
    outer loop
      vertex 2.02445 -19.2614 22.86
      vertex 2.38952 -22.7348 22.86
      vertex 4.02673 -18.9443 22.86
    endloop
  endfacet
  facet normal -0 0 1
    outer loop
      vertex 0 -19.3675 22.86
      vertex 2.38952 -22.7348 22.86
      vertex 2.02445 -19.2614 22.86
    endloop
  endfacet
  facet normal 0 0 1
    outer loop
      vertex 0 -19.3675 22.86
      vertex 0 -22.86 22.86
      vertex 2.38952 -22.7348 22.86
    endloop
  endfacet
  facet normal 0 0 1
    outer loop
      vertex -2.02445 -19.2614 22.86
      vertex 0 -22.86 22.86
      vertex 0 -19.3675 22.86
    endloop
  endfacet
  facet normal 0 0 1
    outer loop
      vertex -2.02445 -19.2614 22.86
      vertex -2.38952 -22.7348 22.86
      vertex 0 -22.86 22.86
    endloop
  endfacet
  facet normal 0 0 1
    outer loop
      vertex -4.02673 -18.9443 22.86
      vertex -2.38952 -22.7348 22.86
      vertex -2.02445 -19.2614 22.86
    endloop
  endfacet
  facet normal 0 0 1
    outer loop
      vertex -4.02673 -18.9443 22.86
      vertex -4.75286 -22.3605 22.86
      vertex -2.38952 -22.7348 22.86
    endloop
  endfacet
  facet normal 0 0 1
    outer loop
      vertex -5.98489 -18.4196 22.86
      vertex -4.75286 -22.3605 22.86
      vertex -4.02673 -18.9443 22.86
    endloop
  endfacet
  facet normal 0 0 1
    outer loop
      vertex -5.98489 -18.4196 22.86
      vertex -7.06413 -21.7412 22.86
      vertex -4.75286 -22.3605 22.86
    endloop
  endfacet
  facet normal 0 0 1
    outer loop
      vertex -7.87747 -17.6931 22.86
      vertex -7.06413 -21.7412 22.86
      vertex -5.98489 -18.4196 22.86
    endloop
  endfacet
  facet normal 0 0 1
    outer loop
      vertex -7.87747 -17.6931 22.86
      vertex -9.298 -20.8836 22.86
      vertex -7.06413 -21.7412 22.86
    endloop
  endfacet
  facet normal 0 0 1
    outer loop
      vertex -9.68375 -16.7727 22.86
      vertex -9.298 -20.8836 22.86
      vertex -7.87747 -17.6931 22.86
    endloop
  endfacet
  facet normal 0 0 1
    outer loop
      vertex -11.43 -19.7973 22.86
      vertex -9.68375 -16.7727 22.86
      vertex -11.3839 -15.6686 22.86
    endloop
  endfacet
  facet normal 0 0 1
    outer loop
      vertex -9.68375 -16.7727 22.86
      vertex -11.43 -19.7973 22.86
      vertex -9.298 -20.8836 22.86
    endloop
  endfacet
  facet normal 0 0 1
    outer loop
      vertex -13.4368 -18.4941 22.86
      vertex -11.3839 -15.6686 22.86
      vertex -12.9594 -14.3929 22.86
    endloop
  endfacet
  facet normal 0 0 1
    outer loop
      vertex -11.3839 -15.6686 22.86
      vertex -13.4368 -18.4941 22.86
      vertex -11.43 -19.7973 22.86
    endloop
  endfacet
  facet normal 0 0 1
    outer loop
      vertex -15.2963 -16.9883 22.86
      vertex -12.9594 -14.3929 22.86
      vertex -14.3929 -12.9594 22.86
    endloop
  endfacet
  facet normal 0 0 1
    outer loop
      vertex -12.9594 -14.3929 22.86
      vertex -15.2963 -16.9883 22.86
      vertex -13.4368 -18.4941 22.86
    endloop
  endfacet
  facet normal 0 0 1
    outer loop
      vertex -16.9883 -15.2963 22.86
      vertex -14.3929 -12.9594 22.86
      vertex -15.6686 -11.3839 22.86
    endloop
  endfacet
  facet normal 0 0 1
    outer loop
      vertex -18.4941 -13.4368 22.86
      vertex -15.6686 -11.3839 22.86
      vertex -16.7727 -9.68375 22.86
    endloop
  endfacet
  facet normal 0 0 1
    outer loop
      vertex -14.3929 -12.9594 22.86
      vertex -16.9883 -15.2963 22.86
      vertex -15.2963 -16.9883 22.86
    endloop
  endfacet
  facet normal 0 0 1
    outer loop
      vertex -19.7973 -11.43 22.86
      vertex -16.7727 -9.68375 22.86
      vertex -17.6931 -7.87747 22.86
    endloop
  endfacet
  facet normal 0 0 1
    outer loop
      vertex -20.8836 -9.298 22.86
      vertex -17.6931 -7.87747 22.86
      vertex -18.4196 -5.98489 22.86
    endloop
  endfacet
  facet normal 0 0 1
    outer loop
      vertex -15.6686 -11.3839 22.86
      vertex -18.4941 -13.4368 22.86
      vertex -16.9883 -15.2963 22.86
    endloop
  endfacet
  facet normal 0 0 1
    outer loop
      vertex -21.7412 -7.06413 22.86
      vertex -18.4196 -5.98489 22.86
      vertex -18.9443 -4.02673 22.86
    endloop
  endfacet
  facet normal 0 0 1
    outer loop
      vertex -22.3605 -4.75286 22.86
      vertex -18.9443 -4.02673 22.86
      vertex -19.2614 -2.02445 22.86
    endloop
  endfacet
  facet normal 0 0 1
    outer loop
      vertex -16.7727 -9.68375 22.86
      vertex -19.7973 -11.43 22.86
      vertex -18.4941 -13.4368 22.86
    endloop
  endfacet
  facet normal 0 0 1
    outer loop
      vertex -22.7348 -2.38952 22.86
      vertex -19.2614 -2.02445 22.86
      vertex -19.3675 0 22.86
    endloop
  endfacet
  facet normal -0 0 1
    outer loop
      vertex -22.3605 4.75286 22.86
      vertex -18.9443 4.02673 22.86
      vertex -21.7412 7.06413 22.86
    endloop
  endfacet
  facet normal 0 0 1
    outer loop
      vertex -18.9443 4.02673 22.86
      vertex -22.3605 4.75286 22.86
      vertex -19.2614 2.02445 22.86
    endloop
  endfacet
  facet normal 0 0 1
    outer loop
      vertex -17.6931 -7.87747 22.86
      vertex -20.8836 -9.298 22.86
      vertex -19.7973 -11.43 22.86
    endloop
  endfacet
  facet normal -0 0 1
    outer loop
      vertex -22.7348 2.38952 22.86
      vertex -19.2614 2.02445 22.86
      vertex -22.3605 4.75286 22.86
    endloop
  endfacet
  facet normal 0 0 1
    outer loop
      vertex -18.4196 -5.98489 22.86
      vertex -21.7412 -7.06413 22.86
      vertex -20.8836 -9.298 22.86
    endloop
  endfacet
  facet normal 0 0 1
    outer loop
      vertex -19.2614 2.02445 22.86
      vertex -22.7348 2.38952 22.86
      vertex -19.3675 0 22.86
    endloop
  endfacet
  facet normal 0 0 1
    outer loop
      vertex -18.9443 -4.02673 22.86
      vertex -22.3605 -4.75286 22.86
      vertex -21.7412 -7.06413 22.86
    endloop
  endfacet
  facet normal 0 0 1
    outer loop
      vertex -22.86 0 22.86
      vertex -19.3675 0 22.86
      vertex -22.7348 2.38952 22.86
    endloop
  endfacet
  facet normal 0 0 1
    outer loop
      vertex -19.2614 -2.02445 22.86
      vertex -22.7348 -2.38952 22.86
      vertex -22.3605 -4.75286 22.86
    endloop
  endfacet
  facet normal 0 0 1
    outer loop
      vertex -19.3675 0 22.86
      vertex -22.86 0 22.86
      vertex -22.7348 -2.38952 22.86
    endloop
  endfacet
  facet normal -0.629322 -0.777145 0
    outer loop
      vertex -15.2963 -16.9883 0
      vertex -13.4368 -18.4941 22.86
      vertex -15.2963 -16.9883 22.86
    endloop
  endfacet
  facet normal -0.629322 -0.777145 -0
    outer loop
      vertex -13.4368 -18.4941 22.86
      vertex -15.2963 -16.9883 0
      vertex -13.4368 -18.4941 0
    endloop
  endfacet
  facet normal 0.933567 -0.358404 0
    outer loop
      vertex 20.8836 -9.298 22.86
      vertex 21.7412 -7.06413 0
      vertex 21.7412 -7.06413 22.86
    endloop
  endfacet
  facet normal 0.933567 -0.358404 0
    outer loop
      vertex 21.7412 -7.06413 0
      vertex 20.8836 -9.298 22.86
      vertex 20.8836 -9.298 0
    endloop
  endfacet
  facet normal -0.54463 -0.838677 0
    outer loop
      vertex -13.4368 -18.4941 0
      vertex -11.43 -19.7973 22.86
      vertex -13.4368 -18.4941 22.86
    endloop
  endfacet
  facet normal -0.54463 -0.838677 -0
    outer loop
      vertex -11.43 -19.7973 22.86
      vertex -13.4368 -18.4941 0
      vertex -11.43 -19.7973 0
    endloop
  endfacet
  facet normal -0.0523237 -0.99863 0
    outer loop
      vertex -2.38952 -22.7348 0
      vertex 0 -22.86 22.86
      vertex -2.38952 -22.7348 22.86
    endloop
  endfacet
  facet normal -0.0523237 -0.99863 -0
    outer loop
      vertex 0 -22.86 22.86
      vertex -2.38952 -22.7348 0
      vertex 0 -22.86 0
    endloop
  endfacet
  facet normal -0.54463 0.838677 0
    outer loop
      vertex -11.43 19.7973 0
      vertex -13.4368 18.4941 22.86
      vertex -11.43 19.7973 22.86
    endloop
  endfacet
  facet normal -0.54463 0.838677 0
    outer loop
      vertex -13.4368 18.4941 22.86
      vertex -11.43 19.7973 0
      vertex -13.4368 18.4941 0
    endloop
  endfacet
  facet normal -0.99863 0.0523237 0
    outer loop
      vertex -22.86 0 0
      vertex -22.7348 2.38952 22.86
      vertex -22.7348 2.38952 0
    endloop
  endfacet
  facet normal -0.99863 0.0523237 0
    outer loop
      vertex -22.7348 2.38952 22.86
      vertex -22.86 0 0
      vertex -22.86 0 22.86
    endloop
  endfacet
  facet normal -0.358404 -0.933567 0
    outer loop
      vertex -9.298 -20.8836 0
      vertex -7.06413 -21.7412 22.86
      vertex -9.298 -20.8836 22.86
    endloop
  endfacet
  facet normal -0.358404 -0.933567 -0
    outer loop
      vertex -7.06413 -21.7412 22.86
      vertex -9.298 -20.8836 0
      vertex -7.06413 -21.7412 0
    endloop
  endfacet
  facet normal -0.156428 -0.987689 0
    outer loop
      vertex -4.75286 -22.3605 0
      vertex -2.38952 -22.7348 22.86
      vertex -4.75286 -22.3605 22.86
    endloop
  endfacet
  facet normal -0.156428 -0.987689 -0
    outer loop
      vertex -2.38952 -22.7348 22.86
      vertex -4.75286 -22.3605 0
      vertex -2.38952 -22.7348 0
    endloop
  endfacet
  facet normal 0.707107 -0.707107 0
    outer loop
      vertex 15.2963 -16.9883 22.86
      vertex 16.9883 -15.2963 0
      vertex 16.9883 -15.2963 22.86
    endloop
  endfacet
  facet normal 0.707107 -0.707107 0
    outer loop
      vertex 16.9883 -15.2963 0
      vertex 15.2963 -16.9883 22.86
      vertex 15.2963 -16.9883 0
    endloop
  endfacet
  facet normal -0.707107 -0.707107 0
    outer loop
      vertex 14.3929 12.9594 5.08
      vertex 12.9594 14.3929 22.86
      vertex 12.9594 14.3929 5.08
    endloop
  endfacet
  facet normal -0.707107 -0.707107 0
    outer loop
      vertex 12.9594 14.3929 22.86
      vertex 14.3929 12.9594 5.08
      vertex 14.3929 12.9594 22.86
    endloop
  endfacet
  facet normal 0.933579 -0.358371 0
    outer loop
      vertex -18.4196 5.98489 22.86
      vertex -17.6931 7.87747 5.08
      vertex -17.6931 7.87747 22.86
    endloop
  endfacet
  facet normal 0.933579 -0.358371 0
    outer loop
      vertex -17.6931 7.87747 5.08
      vertex -18.4196 5.98489 22.86
      vertex -18.4196 5.98489 5.08
    endloop
  endfacet
  facet normal -0.987691 -0.15642 0
    outer loop
      vertex 19.2614 2.02445 5.08
      vertex 18.9443 4.02673 22.86
      vertex 18.9443 4.02673 5.08
    endloop
  endfacet
  facet normal -0.987691 -0.15642 0
    outer loop
      vertex 18.9443 4.02673 22.86
      vertex 19.2614 2.02445 5.08
      vertex 19.2614 2.02445 22.86
    endloop
  endfacet
  facet normal -0.998629 -0.0523375 0
    outer loop
      vertex 19.3675 0 5.08
      vertex 19.2614 2.02445 22.86
      vertex 19.2614 2.02445 5.08
    endloop
  endfacet
  facet normal -0.998629 -0.0523375 0
    outer loop
      vertex 19.2614 2.02445 22.86
      vertex 19.3675 0 5.08
      vertex 19.3675 0 22.86
    endloop
  endfacet
  facet normal -0.987691 0.15642 0
    outer loop
      vertex 18.9443 -4.02673 5.08
      vertex 19.2614 -2.02445 22.86
      vertex 19.2614 -2.02445 5.08
    endloop
  endfacet
  facet normal -0.987691 0.15642 0
    outer loop
      vertex 19.2614 -2.02445 22.86
      vertex 18.9443 -4.02673 5.08
      vertex 18.9443 -4.02673 22.86
    endloop
  endfacet
  facet normal -0.777174 0.629286 0
    outer loop
      vertex 14.3929 -12.9594 5.08
      vertex 15.6686 -11.3839 22.86
      vertex 15.6686 -11.3839 5.08
    endloop
  endfacet
  facet normal -0.777174 0.629286 0
    outer loop
      vertex 15.6686 -11.3839 22.86
      vertex 14.3929 -12.9594 5.08
      vertex 14.3929 -12.9594 22.86
    endloop
  endfacet
  facet normal 0.454012 0.890996 -0
    outer loop
      vertex -7.87747 -17.6931 5.08
      vertex -9.68375 -16.7727 22.86
      vertex -7.87747 -17.6931 22.86
    endloop
  endfacet
  facet normal 0.454012 0.890996 0
    outer loop
      vertex -9.68375 -16.7727 22.86
      vertex -7.87747 -17.6931 5.08
      vertex -9.68375 -16.7727 5.08
    endloop
  endfacet
  facet normal 0.838668 0.544642 0
    outer loop
      vertex -15.6686 -11.3839 22.86
      vertex -16.7727 -9.68375 5.08
      vertex -16.7727 -9.68375 22.86
    endloop
  endfacet
  facet normal 0.838668 0.544642 0
    outer loop
      vertex -16.7727 -9.68375 5.08
      vertex -15.6686 -11.3839 22.86
      vertex -15.6686 -11.3839 5.08
    endloop
  endfacet
  facet normal 0.258825 -0.965924 0
    outer loop
      vertex -5.98489 18.4196 5.08
      vertex -4.02673 18.9443 22.86
      vertex -5.98489 18.4196 22.86
    endloop
  endfacet
  facet normal 0.258825 -0.965924 0
    outer loop
      vertex -4.02673 18.9443 22.86
      vertex -5.98489 18.4196 5.08
      vertex -4.02673 18.9443 5.08
    endloop
  endfacet
  facet normal -0.358371 0.933579 0
    outer loop
      vertex 7.87747 -17.6931 5.08
      vertex 5.98489 -18.4196 22.86
      vertex 7.87747 -17.6931 22.86
    endloop
  endfacet
  facet normal -0.358371 0.933579 0
    outer loop
      vertex 5.98489 -18.4196 22.86
      vertex 7.87747 -17.6931 5.08
      vertex 5.98489 -18.4196 5.08
    endloop
  endfacet
  facet normal -0.0523375 0.998629 0
    outer loop
      vertex 2.02445 -19.2614 5.08
      vertex 0 -19.3675 22.86
      vertex 2.02445 -19.2614 22.86
    endloop
  endfacet
  facet normal -0.0523375 0.998629 0
    outer loop
      vertex 0 -19.3675 22.86
      vertex 2.02445 -19.2614 5.08
      vertex 0 -19.3675 5.08
    endloop
  endfacet
  facet normal 0.454012 -0.890996 0
    outer loop
      vertex -9.68375 16.7727 5.08
      vertex -7.87747 17.6931 22.86
      vertex -9.68375 16.7727 22.86
    endloop
  endfacet
  facet normal 0.454012 -0.890996 0
    outer loop
      vertex -7.87747 17.6931 22.86
      vertex -9.68375 16.7727 5.08
      vertex -7.87747 17.6931 5.08
    endloop
  endfacet
  facet normal 0.358371 -0.933579 0
    outer loop
      vertex -7.87747 17.6931 5.08
      vertex -5.98489 18.4196 22.86
      vertex -7.87747 17.6931 22.86
    endloop
  endfacet
  facet normal 0.358371 -0.933579 0
    outer loop
      vertex -5.98489 18.4196 22.86
      vertex -7.87747 17.6931 5.08
      vertex -5.98489 18.4196 5.08
    endloop
  endfacet
  facet normal 0.777174 -0.629286 0
    outer loop
      vertex -15.6686 11.3839 22.86
      vertex -14.3929 12.9594 5.08
      vertex -14.3929 12.9594 22.86
    endloop
  endfacet
  facet normal 0.777174 -0.629286 0
    outer loop
      vertex -14.3929 12.9594 5.08
      vertex -15.6686 11.3839 22.86
      vertex -15.6686 11.3839 5.08
    endloop
  endfacet
  facet normal 0.15642 -0.987691 0
    outer loop
      vertex -4.02673 18.9443 5.08
      vertex -2.02445 19.2614 22.86
      vertex -4.02673 18.9443 22.86
    endloop
  endfacet
  facet normal 0.15642 -0.987691 0
    outer loop
      vertex -2.02445 19.2614 22.86
      vertex -4.02673 18.9443 5.08
      vertex -2.02445 19.2614 5.08
    endloop
  endfacet
  facet normal -0.544642 -0.838668 0
    outer loop
      vertex 9.68375 16.7727 5.08
      vertex 11.3839 15.6686 22.86
      vertex 9.68375 16.7727 22.86
    endloop
  endfacet
  facet normal -0.544642 -0.838668 -0
    outer loop
      vertex 11.3839 15.6686 22.86
      vertex 9.68375 16.7727 5.08
      vertex 11.3839 15.6686 5.08
    endloop
  endfacet
  facet normal 0.629286 -0.777174 0
    outer loop
      vertex -12.9594 14.3929 5.08
      vertex -11.3839 15.6686 22.86
      vertex -12.9594 14.3929 22.86
    endloop
  endfacet
  facet normal 0.629286 -0.777174 0
    outer loop
      vertex -11.3839 15.6686 22.86
      vertex -12.9594 14.3929 5.08
      vertex -11.3839 15.6686 5.08
    endloop
  endfacet
  facet normal -0.965924 0.258825 0
    outer loop
      vertex 18.4196 -5.98489 5.08
      vertex 18.9443 -4.02673 22.86
      vertex 18.9443 -4.02673 5.08
    endloop
  endfacet
  facet normal -0.965924 0.258825 0
    outer loop
      vertex 18.9443 -4.02673 22.86
      vertex 18.4196 -5.98489 5.08
      vertex 18.4196 -5.98489 22.86
    endloop
  endfacet
  facet normal -0.258825 0.965924 0
    outer loop
      vertex 5.98489 -18.4196 5.08
      vertex 4.02673 -18.9443 22.86
      vertex 5.98489 -18.4196 22.86
    endloop
  endfacet
  facet normal -0.258825 0.965924 0
    outer loop
      vertex 4.02673 -18.9443 22.86
      vertex 5.98489 -18.4196 5.08
      vertex 4.02673 -18.9443 5.08
    endloop
  endfacet
  facet normal -0.454012 -0.890996 0
    outer loop
      vertex 7.87747 17.6931 5.08
      vertex 9.68375 16.7727 22.86
      vertex 7.87747 17.6931 22.86
    endloop
  endfacet
  facet normal -0.454012 -0.890996 -0
    outer loop
      vertex 9.68375 16.7727 22.86
      vertex 7.87747 17.6931 5.08
      vertex 9.68375 16.7727 5.08
    endloop
  endfacet
  facet normal 0.777174 0.629286 0
    outer loop
      vertex -14.3929 -12.9594 22.86
      vertex -15.6686 -11.3839 5.08
      vertex -15.6686 -11.3839 22.86
    endloop
  endfacet
  facet normal 0.777174 0.629286 0
    outer loop
      vertex -15.6686 -11.3839 5.08
      vertex -14.3929 -12.9594 22.86
      vertex -14.3929 -12.9594 5.08
    endloop
  endfacet
  facet normal -0.838668 0.544642 0
    outer loop
      vertex 15.6686 -11.3839 5.08
      vertex 16.7727 -9.68375 22.86
      vertex 16.7727 -9.68375 5.08
    endloop
  endfacet
  facet normal -0.838668 0.544642 0
    outer loop
      vertex 16.7727 -9.68375 22.86
      vertex 15.6686 -11.3839 5.08
      vertex 15.6686 -11.3839 22.86
    endloop
  endfacet
  facet normal -0.15642 0.987691 0
    outer loop
      vertex 4.02673 -18.9443 5.08
      vertex 2.02445 -19.2614 22.86
      vertex 4.02673 -18.9443 22.86
    endloop
  endfacet
  facet normal -0.15642 0.987691 0
    outer loop
      vertex 2.02445 -19.2614 22.86
      vertex 4.02673 -18.9443 5.08
      vertex 2.02445 -19.2614 5.08
    endloop
  endfacet
  facet normal -0.838668 -0.544642 0
    outer loop
      vertex 16.7727 9.68375 5.08
      vertex 15.6686 11.3839 22.86
      vertex 15.6686 11.3839 5.08
    endloop
  endfacet
  facet normal -0.838668 -0.544642 0
    outer loop
      vertex 15.6686 11.3839 22.86
      vertex 16.7727 9.68375 5.08
      vertex 16.7727 9.68375 22.86
    endloop
  endfacet
  facet normal -0.890996 -0.454012 0
    outer loop
      vertex 17.6931 7.87747 5.08
      vertex 16.7727 9.68375 22.86
      vertex 16.7727 9.68375 5.08
    endloop
  endfacet
  facet normal -0.890996 -0.454012 0
    outer loop
      vertex 16.7727 9.68375 22.86
      vertex 17.6931 7.87747 5.08
      vertex 17.6931 7.87747 22.86
    endloop
  endfacet
  facet normal 0.707107 -0.707107 0
    outer loop
      vertex -14.3929 12.9594 22.86
      vertex -12.9594 14.3929 5.08
      vertex -12.9594 14.3929 22.86
    endloop
  endfacet
  facet normal 0.707107 -0.707107 0
    outer loop
      vertex -12.9594 14.3929 5.08
      vertex -14.3929 12.9594 22.86
      vertex -14.3929 12.9594 5.08
    endloop
  endfacet
  facet normal -0.629286 -0.777174 0
    outer loop
      vertex 11.3839 15.6686 5.08
      vertex 12.9594 14.3929 22.86
      vertex 11.3839 15.6686 22.86
    endloop
  endfacet
  facet normal -0.629286 -0.777174 -0
    outer loop
      vertex 12.9594 14.3929 22.86
      vertex 11.3839 15.6686 5.08
      vertex 12.9594 14.3929 5.08
    endloop
  endfacet
  facet normal 0.890996 0.454012 0
    outer loop
      vertex -16.7727 -9.68375 22.86
      vertex -17.6931 -7.87747 5.08
      vertex -17.6931 -7.87747 22.86
    endloop
  endfacet
  facet normal 0.890996 0.454012 0
    outer loop
      vertex -17.6931 -7.87747 5.08
      vertex -16.7727 -9.68375 22.86
      vertex -16.7727 -9.68375 5.08
    endloop
  endfacet
  facet normal -0.777174 -0.629286 0
    outer loop
      vertex 15.6686 11.3839 5.08
      vertex 14.3929 12.9594 22.86
      vertex 14.3929 12.9594 5.08
    endloop
  endfacet
  facet normal -0.777174 -0.629286 0
    outer loop
      vertex 14.3929 12.9594 22.86
      vertex 15.6686 11.3839 5.08
      vertex 15.6686 11.3839 22.86
    endloop
  endfacet
  facet normal -0.454012 0.890996 0
    outer loop
      vertex 9.68375 -16.7727 5.08
      vertex 7.87747 -17.6931 22.86
      vertex 9.68375 -16.7727 22.86
    endloop
  endfacet
  facet normal -0.454012 0.890996 0
    outer loop
      vertex 7.87747 -17.6931 22.86
      vertex 9.68375 -16.7727 5.08
      vertex 7.87747 -17.6931 5.08
    endloop
  endfacet
  facet normal 0.0523375 -0.998629 0
    outer loop
      vertex -2.02445 19.2614 5.08
      vertex 0 19.3675 22.86
      vertex -2.02445 19.2614 22.86
    endloop
  endfacet
  facet normal 0.0523375 -0.998629 0
    outer loop
      vertex 0 19.3675 22.86
      vertex -2.02445 19.2614 5.08
      vertex 0 19.3675 5.08
    endloop
  endfacet
  facet normal -0.933579 -0.358371 0
    outer loop
      vertex 18.4196 5.98489 5.08
      vertex 17.6931 7.87747 22.86
      vertex 17.6931 7.87747 5.08
    endloop
  endfacet
  facet normal -0.933579 -0.358371 0
    outer loop
      vertex 17.6931 7.87747 22.86
      vertex 18.4196 5.98489 5.08
      vertex 18.4196 5.98489 22.86
    endloop
  endfacet
  facet normal 0.707107 0.707107 0
    outer loop
      vertex -12.9594 -14.3929 22.86
      vertex -14.3929 -12.9594 5.08
      vertex -14.3929 -12.9594 22.86
    endloop
  endfacet
  facet normal 0.707107 0.707107 0
    outer loop
      vertex -14.3929 -12.9594 5.08
      vertex -12.9594 -14.3929 22.86
      vertex -12.9594 -14.3929 5.08
    endloop
  endfacet
  facet normal -0.258825 -0.965924 0
    outer loop
      vertex 4.02673 18.9443 5.08
      vertex 5.98489 18.4196 22.86
      vertex 4.02673 18.9443 22.86
    endloop
  endfacet
  facet normal -0.258825 -0.965924 -0
    outer loop
      vertex 5.98489 18.4196 22.86
      vertex 4.02673 18.9443 5.08
      vertex 5.98489 18.4196 5.08
    endloop
  endfacet
  facet normal 0.965924 -0.258825 0
    outer loop
      vertex -18.9443 4.02673 22.86
      vertex -18.4196 5.98489 5.08
      vertex -18.4196 5.98489 22.86
    endloop
  endfacet
  facet normal 0.965924 -0.258825 0
    outer loop
      vertex -18.4196 5.98489 5.08
      vertex -18.9443 4.02673 22.86
      vertex -18.9443 4.02673 5.08
    endloop
  endfacet
  facet normal -0.890996 0.454012 0
    outer loop
      vertex 16.7727 -9.68375 5.08
      vertex 17.6931 -7.87747 22.86
      vertex 17.6931 -7.87747 5.08
    endloop
  endfacet
  facet normal -0.890996 0.454012 0
    outer loop
      vertex 17.6931 -7.87747 22.86
      vertex 16.7727 -9.68375 5.08
      vertex 16.7727 -9.68375 22.86
    endloop
  endfacet
  facet normal -0.358371 -0.933579 0
    outer loop
      vertex 5.98489 18.4196 5.08
      vertex 7.87747 17.6931 22.86
      vertex 5.98489 18.4196 22.86
    endloop
  endfacet
  facet normal -0.358371 -0.933579 -0
    outer loop
      vertex 7.87747 17.6931 22.86
      vertex 5.98489 18.4196 5.08
      vertex 7.87747 17.6931 5.08
    endloop
  endfacet
  facet normal -0.544642 0.838668 0
    outer loop
      vertex 11.3839 -15.6686 5.08
      vertex 9.68375 -16.7727 22.86
      vertex 11.3839 -15.6686 22.86
    endloop
  endfacet
  facet normal -0.544642 0.838668 0
    outer loop
      vertex 9.68375 -16.7727 22.86
      vertex 11.3839 -15.6686 5.08
      vertex 9.68375 -16.7727 5.08
    endloop
  endfacet
  facet normal 0 0 1
    outer loop
      vertex 19.2614 2.02445 5.08
      vertex 19.2614 -2.02445 5.08
      vertex 19.3675 0 5.08
    endloop
  endfacet
  facet normal 0 0 1
    outer loop
      vertex 18.9443 4.02673 5.08
      vertex 19.2614 -2.02445 5.08
      vertex 19.2614 2.02445 5.08
    endloop
  endfacet
  facet normal 0 0 1
    outer loop
      vertex 18.9443 4.02673 5.08
      vertex 18.9443 -4.02673 5.08
      vertex 19.2614 -2.02445 5.08
    endloop
  endfacet
  facet normal 0 0 1
    outer loop
      vertex 18.4196 5.98489 5.08
      vertex 18.9443 -4.02673 5.08
      vertex 18.9443 4.02673 5.08
    endloop
  endfacet
  facet normal 0 0 1
    outer loop
      vertex 18.4196 5.98489 5.08
      vertex 18.4196 -5.98489 5.08
      vertex 18.9443 -4.02673 5.08
    endloop
  endfacet
  facet normal 0 0 1
    outer loop
      vertex 17.6931 7.87747 5.08
      vertex 18.4196 -5.98489 5.08
      vertex 18.4196 5.98489 5.08
    endloop
  endfacet
  facet normal 0 0 1
    outer loop
      vertex 17.6931 7.87747 5.08
      vertex 17.6931 -7.87747 5.08
      vertex 18.4196 -5.98489 5.08
    endloop
  endfacet
  facet normal 0 0 1
    outer loop
      vertex 16.7727 9.68375 5.08
      vertex 17.6931 -7.87747 5.08
      vertex 17.6931 7.87747 5.08
    endloop
  endfacet
  facet normal 0 0 1
    outer loop
      vertex 16.7727 9.68375 5.08
      vertex 16.7727 -9.68375 5.08
      vertex 17.6931 -7.87747 5.08
    endloop
  endfacet
  facet normal 0 0 1
    outer loop
      vertex 15.6686 11.3839 5.08
      vertex 16.7727 -9.68375 5.08
      vertex 16.7727 9.68375 5.08
    endloop
  endfacet
  facet normal 0 0 1
    outer loop
      vertex 15.6686 11.3839 5.08
      vertex 15.6686 -11.3839 5.08
      vertex 16.7727 -9.68375 5.08
    endloop
  endfacet
  facet normal 0 0 1
    outer loop
      vertex 14.3929 12.9594 5.08
      vertex 15.6686 -11.3839 5.08
      vertex 15.6686 11.3839 5.08
    endloop
  endfacet
  facet normal 0 0 1
    outer loop
      vertex 14.3929 12.9594 5.08
      vertex 14.3929 -12.9594 5.08
      vertex 15.6686 -11.3839 5.08
    endloop
  endfacet
  facet normal 0 0 1
    outer loop
      vertex 12.9594 14.3929 5.08
      vertex 14.3929 -12.9594 5.08
      vertex 14.3929 12.9594 5.08
    endloop
  endfacet
  facet normal 0 0 1
    outer loop
      vertex 12.9594 14.3929 5.08
      vertex 12.9594 -14.3929 5.08
      vertex 14.3929 -12.9594 5.08
    endloop
  endfacet
  facet normal 0 0 1
    outer loop
      vertex 11.3839 15.6686 5.08
      vertex 12.9594 -14.3929 5.08
      vertex 12.9594 14.3929 5.08
    endloop
  endfacet
  facet normal 0 0 1
    outer loop
      vertex 11.3839 15.6686 5.08
      vertex 11.3839 -15.6686 5.08
      vertex 12.9594 -14.3929 5.08
    endloop
  endfacet
  facet normal 0 0 1
    outer loop
      vertex 9.68375 16.7727 5.08
      vertex 11.3839 -15.6686 5.08
      vertex 11.3839 15.6686 5.08
    endloop
  endfacet
  facet normal 0 0 1
    outer loop
      vertex 9.68375 16.7727 5.08
      vertex 9.68375 -16.7727 5.08
      vertex 11.3839 -15.6686 5.08
    endloop
  endfacet
  facet normal 0 0 1
    outer loop
      vertex 7.87747 17.6931 5.08
      vertex 9.68375 -16.7727 5.08
      vertex 9.68375 16.7727 5.08
    endloop
  endfacet
  facet normal 0 0 1
    outer loop
      vertex 7.87747 17.6931 5.08
      vertex 7.87747 -17.6931 5.08
      vertex 9.68375 -16.7727 5.08
    endloop
  endfacet
  facet normal 0 0 1
    outer loop
      vertex 5.98489 18.4196 5.08
      vertex 7.87747 -17.6931 5.08
      vertex 7.87747 17.6931 5.08
    endloop
  endfacet
  facet normal 0 0 1
    outer loop
      vertex 5.98489 18.4196 5.08
      vertex 5.98489 -18.4196 5.08
      vertex 7.87747 -17.6931 5.08
    endloop
  endfacet
  facet normal 0 0 1
    outer loop
      vertex 4.02673 18.9443 5.08
      vertex 5.98489 -18.4196 5.08
      vertex 5.98489 18.4196 5.08
    endloop
  endfacet
  facet normal 0 0 1
    outer loop
      vertex 4.02673 18.9443 5.08
      vertex 4.02673 -18.9443 5.08
      vertex 5.98489 -18.4196 5.08
    endloop
  endfacet
  facet normal 0 0 1
    outer loop
      vertex 2.02445 19.2614 5.08
      vertex 4.02673 -18.9443 5.08
      vertex 4.02673 18.9443 5.08
    endloop
  endfacet
  facet normal 0 0 1
    outer loop
      vertex 2.02445 19.2614 5.08
      vertex 2.02445 -19.2614 5.08
      vertex 4.02673 -18.9443 5.08
    endloop
  endfacet
  facet normal 0 0 1
    outer loop
      vertex 0 19.3675 5.08
      vertex 2.02445 -19.2614 5.08
      vertex 2.02445 19.2614 5.08
    endloop
  endfacet
  facet normal 0 0 1
    outer loop
      vertex 0 19.3675 5.08
      vertex 0 -19.3675 5.08
      vertex 2.02445 -19.2614 5.08
    endloop
  endfacet
  facet normal -0 0 1
    outer loop
      vertex -2.02445 19.2614 5.08
      vertex 0 -19.3675 5.08
      vertex 0 19.3675 5.08
    endloop
  endfacet
  facet normal 0 0 1
    outer loop
      vertex -2.02445 19.2614 5.08
      vertex -2.02445 -19.2614 5.08
      vertex 0 -19.3675 5.08
    endloop
  endfacet
  facet normal -0 0 1
    outer loop
      vertex -4.02673 18.9443 5.08
      vertex -2.02445 -19.2614 5.08
      vertex -2.02445 19.2614 5.08
    endloop
  endfacet
  facet normal 0 0 1
    outer loop
      vertex -4.02673 18.9443 5.08
      vertex -4.02673 -18.9443 5.08
      vertex -2.02445 -19.2614 5.08
    endloop
  endfacet
  facet normal -0 0 1
    outer loop
      vertex -5.98489 18.4196 5.08
      vertex -4.02673 -18.9443 5.08
      vertex -4.02673 18.9443 5.08
    endloop
  endfacet
  facet normal 0 0 1
    outer loop
      vertex -5.98489 18.4196 5.08
      vertex -5.98489 -18.4196 5.08
      vertex -4.02673 -18.9443 5.08
    endloop
  endfacet
  facet normal -0 0 1
    outer loop
      vertex -7.87747 17.6931 5.08
      vertex -5.98489 -18.4196 5.08
      vertex -5.98489 18.4196 5.08
    endloop
  endfacet
  facet normal 0 0 1
    outer loop
      vertex -7.87747 17.6931 5.08
      vertex -7.87747 -17.6931 5.08
      vertex -5.98489 -18.4196 5.08
    endloop
  endfacet
  facet normal -0 0 1
    outer loop
      vertex -9.68375 16.7727 5.08
      vertex -7.87747 -17.6931 5.08
      vertex -7.87747 17.6931 5.08
    endloop
  endfacet
  facet normal 0 0 1
    outer loop
      vertex -9.68375 16.7727 5.08
      vertex -9.68375 -16.7727 5.08
      vertex -7.87747 -17.6931 5.08
    endloop
  endfacet
  facet normal -0 0 1
    outer loop
      vertex -11.3839 15.6686 5.08
      vertex -9.68375 -16.7727 5.08
      vertex -9.68375 16.7727 5.08
    endloop
  endfacet
  facet normal 0 0 1
    outer loop
      vertex -11.3839 15.6686 5.08
      vertex -11.3839 -15.6686 5.08
      vertex -9.68375 -16.7727 5.08
    endloop
  endfacet
  facet normal -0 0 1
    outer loop
      vertex -12.9594 14.3929 5.08
      vertex -11.3839 -15.6686 5.08
      vertex -11.3839 15.6686 5.08
    endloop
  endfacet
  facet normal 0 0 1
    outer loop
      vertex -12.9594 14.3929 5.08
      vertex -12.9594 -14.3929 5.08
      vertex -11.3839 -15.6686 5.08
    endloop
  endfacet
  facet normal -0 0 1
    outer loop
      vertex -14.3929 12.9594 5.08
      vertex -12.9594 -14.3929 5.08
      vertex -12.9594 14.3929 5.08
    endloop
  endfacet
  facet normal 0 0 1
    outer loop
      vertex -14.3929 12.9594 5.08
      vertex -14.3929 -12.9594 5.08
      vertex -12.9594 -14.3929 5.08
    endloop
  endfacet
  facet normal -0 0 1
    outer loop
      vertex -15.6686 11.3839 5.08
      vertex -14.3929 -12.9594 5.08
      vertex -14.3929 12.9594 5.08
    endloop
  endfacet
  facet normal 0 0 1
    outer loop
      vertex -15.6686 11.3839 5.08
      vertex -15.6686 -11.3839 5.08
      vertex -14.3929 -12.9594 5.08
    endloop
  endfacet
  facet normal -0 0 1
    outer loop
      vertex -16.7727 9.68375 5.08
      vertex -15.6686 -11.3839 5.08
      vertex -15.6686 11.3839 5.08
    endloop
  endfacet
  facet normal 0 0 1
    outer loop
      vertex -16.7727 9.68375 5.08
      vertex -16.7727 -9.68375 5.08
      vertex -15.6686 -11.3839 5.08
    endloop
  endfacet
  facet normal -0 0 1
    outer loop
      vertex -17.6931 7.87747 5.08
      vertex -16.7727 -9.68375 5.08
      vertex -16.7727 9.68375 5.08
    endloop
  endfacet
  facet normal 0 0 1
    outer loop
      vertex -17.6931 7.87747 5.08
      vertex -17.6931 -7.87747 5.08
      vertex -16.7727 -9.68375 5.08
    endloop
  endfacet
  facet normal -0 0 1
    outer loop
      vertex -18.4196 5.98489 5.08
      vertex -17.6931 -7.87747 5.08
      vertex -17.6931 7.87747 5.08
    endloop
  endfacet
  facet normal 0 0 1
    outer loop
      vertex -18.4196 5.98489 5.08
      vertex -18.4196 -5.98489 5.08
      vertex -17.6931 -7.87747 5.08
    endloop
  endfacet
  facet normal -0 0 1
    outer loop
      vertex -18.9443 4.02673 5.08
      vertex -18.4196 -5.98489 5.08
      vertex -18.4196 5.98489 5.08
    endloop
  endfacet
  facet normal 0 0 1
    outer loop
      vertex -18.9443 4.02673 5.08
      vertex -18.9443 -4.02673 5.08
      vertex -18.4196 -5.98489 5.08
    endloop
  endfacet
  facet normal -0 0 1
    outer loop
      vertex -19.2614 2.02445 5.08
      vertex -18.9443 -4.02673 5.08
      vertex -18.9443 4.02673 5.08
    endloop
  endfacet
  facet normal 0 0 1
    outer loop
      vertex -19.2614 2.02445 5.08
      vertex -19.2614 -2.02445 5.08
      vertex -18.9443 -4.02673 5.08
    endloop
  endfacet
  facet normal 0 -0 1
    outer loop
      vertex -19.2614 -2.02445 5.08
      vertex -19.2614 2.02445 5.08
      vertex -19.3675 0 5.08
    endloop
  endfacet
  facet normal 0.544642 -0.838668 0
    outer loop
      vertex -11.3839 15.6686 5.08
      vertex -9.68375 16.7727 22.86
      vertex -11.3839 15.6686 22.86
    endloop
  endfacet
  facet normal 0.544642 -0.838668 0
    outer loop
      vertex -9.68375 16.7727 22.86
      vertex -11.3839 15.6686 5.08
      vertex -9.68375 16.7727 5.08
    endloop
  endfacet
  facet normal 0.987691 -0.15642 0
    outer loop
      vertex -19.2614 2.02445 22.86
      vertex -18.9443 4.02673 5.08
      vertex -18.9443 4.02673 22.86
    endloop
  endfacet
  facet normal 0.987691 -0.15642 0
    outer loop
      vertex -18.9443 4.02673 5.08
      vertex -19.2614 2.02445 22.86
      vertex -19.2614 2.02445 5.08
    endloop
  endfacet
  facet normal -0.0523375 -0.998629 0
    outer loop
      vertex 0 19.3675 5.08
      vertex 2.02445 19.2614 22.86
      vertex 0 19.3675 22.86
    endloop
  endfacet
  facet normal -0.0523375 -0.998629 -0
    outer loop
      vertex 2.02445 19.2614 22.86
      vertex 0 19.3675 5.08
      vertex 2.02445 19.2614 5.08
    endloop
  endfacet
  facet normal 0.358371 0.933579 -0
    outer loop
      vertex -5.98489 -18.4196 5.08
      vertex -7.87747 -17.6931 22.86
      vertex -5.98489 -18.4196 22.86
    endloop
  endfacet
  facet normal 0.358371 0.933579 0
    outer loop
      vertex -7.87747 -17.6931 22.86
      vertex -5.98489 -18.4196 5.08
      vertex -7.87747 -17.6931 5.08
    endloop
  endfacet
  facet normal -0.965924 -0.258825 0
    outer loop
      vertex 18.9443 4.02673 5.08
      vertex 18.4196 5.98489 22.86
      vertex 18.4196 5.98489 5.08
    endloop
  endfacet
  facet normal -0.965924 -0.258825 0
    outer loop
      vertex 18.4196 5.98489 22.86
      vertex 18.9443 4.02673 5.08
      vertex 18.9443 4.02673 22.86
    endloop
  endfacet
  facet normal 0.890996 -0.454012 0
    outer loop
      vertex -17.6931 7.87747 22.86
      vertex -16.7727 9.68375 5.08
      vertex -16.7727 9.68375 22.86
    endloop
  endfacet
  facet normal 0.890996 -0.454012 0
    outer loop
      vertex -16.7727 9.68375 5.08
      vertex -17.6931 7.87747 22.86
      vertex -17.6931 7.87747 5.08
    endloop
  endfacet
  facet normal -0.15642 -0.987691 0
    outer loop
      vertex 2.02445 19.2614 5.08
      vertex 4.02673 18.9443 22.86
      vertex 2.02445 19.2614 22.86
    endloop
  endfacet
  facet normal -0.15642 -0.987691 -0
    outer loop
      vertex 4.02673 18.9443 22.86
      vertex 2.02445 19.2614 5.08
      vertex 4.02673 18.9443 5.08
    endloop
  endfacet
  facet normal 0.965924 0.258825 0
    outer loop
      vertex -18.4196 -5.98489 22.86
      vertex -18.9443 -4.02673 5.08
      vertex -18.9443 -4.02673 22.86
    endloop
  endfacet
  facet normal 0.965924 0.258825 0
    outer loop
      vertex -18.9443 -4.02673 5.08
      vertex -18.4196 -5.98489 22.86
      vertex -18.4196 -5.98489 5.08
    endloop
  endfacet
  facet normal 0.933579 0.358371 0
    outer loop
      vertex -17.6931 -7.87747 22.86
      vertex -18.4196 -5.98489 5.08
      vertex -18.4196 -5.98489 22.86
    endloop
  endfacet
  facet normal 0.933579 0.358371 0
    outer loop
      vertex -18.4196 -5.98489 5.08
      vertex -17.6931 -7.87747 22.86
      vertex -17.6931 -7.87747 5.08
    endloop
  endfacet
  facet normal -0.998629 0.0523375 0
    outer loop
      vertex 19.2614 -2.02445 5.08
      vertex 19.3675 0 22.86
      vertex 19.3675 0 5.08
    endloop
  endfacet
  facet normal -0.998629 0.0523375 0
    outer loop
      vertex 19.3675 0 22.86
      vertex 19.2614 -2.02445 5.08
      vertex 19.2614 -2.02445 22.86
    endloop
  endfacet
  facet normal 0.987691 0.15642 0
    outer loop
      vertex -18.9443 -4.02673 22.86
      vertex -19.2614 -2.02445 5.08
      vertex -19.2614 -2.02445 22.86
    endloop
  endfacet
  facet normal 0.987691 0.15642 0
    outer loop
      vertex -19.2614 -2.02445 5.08
      vertex -18.9443 -4.02673 22.86
      vertex -18.9443 -4.02673 5.08
    endloop
  endfacet
  facet normal 0.258825 0.965924 -0
    outer loop
      vertex -4.02673 -18.9443 5.08
      vertex -5.98489 -18.4196 22.86
      vertex -4.02673 -18.9443 22.86
    endloop
  endfacet
  facet normal 0.258825 0.965924 0
    outer loop
      vertex -5.98489 -18.4196 22.86
      vertex -4.02673 -18.9443 5.08
      vertex -5.98489 -18.4196 5.08
    endloop
  endfacet
  facet normal 0.998629 0.0523375 0
    outer loop
      vertex -19.2614 -2.02445 22.86
      vertex -19.3675 0 5.08
      vertex -19.3675 0 22.86
    endloop
  endfacet
  facet normal 0.998629 0.0523375 0
    outer loop
      vertex -19.3675 0 5.08
      vertex -19.2614 -2.02445 22.86
      vertex -19.2614 -2.02445 5.08
    endloop
  endfacet
  facet normal 0.838668 -0.544642 0
    outer loop
      vertex -16.7727 9.68375 22.86
      vertex -15.6686 11.3839 5.08
      vertex -15.6686 11.3839 22.86
    endloop
  endfacet
  facet normal 0.838668 -0.544642 0
    outer loop
      vertex -15.6686 11.3839 5.08
      vertex -16.7727 9.68375 22.86
      vertex -16.7727 9.68375 5.08
    endloop
  endfacet
  facet normal 0.629286 0.777174 -0
    outer loop
      vertex -11.3839 -15.6686 5.08
      vertex -12.9594 -14.3929 22.86
      vertex -11.3839 -15.6686 22.86
    endloop
  endfacet
  facet normal 0.629286 0.777174 0
    outer loop
      vertex -12.9594 -14.3929 22.86
      vertex -11.3839 -15.6686 5.08
      vertex -12.9594 -14.3929 5.08
    endloop
  endfacet
  facet normal -0.933579 0.358371 0
    outer loop
      vertex 17.6931 -7.87747 5.08
      vertex 18.4196 -5.98489 22.86
      vertex 18.4196 -5.98489 5.08
    endloop
  endfacet
  facet normal -0.933579 0.358371 0
    outer loop
      vertex 18.4196 -5.98489 22.86
      vertex 17.6931 -7.87747 5.08
      vertex 17.6931 -7.87747 22.86
    endloop
  endfacet
  facet normal 0.544642 0.838668 -0
    outer loop
      vertex -9.68375 -16.7727 5.08
      vertex -11.3839 -15.6686 22.86
      vertex -9.68375 -16.7727 22.86
    endloop
  endfacet
  facet normal 0.544642 0.838668 0
    outer loop
      vertex -11.3839 -15.6686 22.86
      vertex -9.68375 -16.7727 5.08
      vertex -11.3839 -15.6686 5.08
    endloop
  endfacet
  facet normal 0.0523375 0.998629 -0
    outer loop
      vertex 0 -19.3675 5.08
      vertex -2.02445 -19.2614 22.86
      vertex 0 -19.3675 22.86
    endloop
  endfacet
  facet normal 0.0523375 0.998629 0
    outer loop
      vertex -2.02445 -19.2614 22.86
      vertex 0 -19.3675 5.08
      vertex -2.02445 -19.2614 5.08
    endloop
  endfacet
  facet normal 0.998629 -0.0523375 0
    outer loop
      vertex -19.3675 0 22.86
      vertex -19.2614 2.02445 5.08
      vertex -19.2614 2.02445 22.86
    endloop
  endfacet
  facet normal 0.998629 -0.0523375 0
    outer loop
      vertex -19.2614 2.02445 5.08
      vertex -19.3675 0 22.86
      vertex -19.3675 0 5.08
    endloop
  endfacet
  facet normal 0.15642 0.987691 -0
    outer loop
      vertex -2.02445 -19.2614 5.08
      vertex -4.02673 -18.9443 22.86
      vertex -2.02445 -19.2614 22.86
    endloop
  endfacet
  facet normal 0.15642 0.987691 0
    outer loop
      vertex -4.02673 -18.9443 22.86
      vertex -2.02445 -19.2614 5.08
      vertex -4.02673 -18.9443 5.08
    endloop
  endfacet
  facet normal -0.707107 0.707107 0
    outer loop
      vertex 12.9594 -14.3929 5.08
      vertex 14.3929 -12.9594 22.86
      vertex 14.3929 -12.9594 5.08
    endloop
  endfacet
  facet normal -0.707107 0.707107 0
    outer loop
      vertex 14.3929 -12.9594 22.86
      vertex 12.9594 -14.3929 5.08
      vertex 12.9594 -14.3929 22.86
    endloop
  endfacet
  facet normal -0.629286 0.777174 0
    outer loop
      vertex 12.9594 -14.3929 5.08
      vertex 11.3839 -15.6686 22.86
      vertex 12.9594 -14.3929 22.86
    endloop
  endfacet
  facet normal -0.629286 0.777174 0
    outer loop
      vertex 11.3839 -15.6686 22.86
      vertex 12.9594 -14.3929 5.08
      vertex 11.3839 -15.6686 5.08
    endloop
  endfacet
endsolid OpenSCAD_Model
