solid OpenSCAD_Model
  facet normal 1 -0 0
    outer loop
      vertex 12.7 -5.08 15.24
      vertex 12.7 0 0
      vertex 12.7 0 15.24
    endloop
  endfacet
  facet normal 1 0 0
    outer loop
      vertex 12.7 0 0
      vertex 12.7 -5.08 15.24
      vertex 12.7 -5.08 0
    endloop
  endfacet
  facet normal 0 0 1
    outer loop
      vertex 12.7 6.34999 15.24
      vertex 0 0 15.24
      vertex 12.7 0 15.24
    endloop
  endfacet
  facet normal -0 0 1
    outer loop
      vertex 0 0 15.24
      vertex 12.7 -5.08 15.24
      vertex 12.7 0 15.24
    endloop
  endfacet
  facet normal 0 0 1
    outer loop
      vertex -12.7 0 15.24
      vertex 0 0 15.24
      vertex -12.7 6.34999 15.24
    endloop
  endfacet
  facet normal 0 0 1
    outer loop
      vertex -12.7 -5.08 15.24
      vertex 0 0 15.24
      vertex -12.7 0 15.24
    endloop
  endfacet
  facet normal 0 0 1
    outer loop
      vertex 0 0 15.24
      vertex -12.7 -5.08 15.24
      vertex 12.7 -5.08 15.24
    endloop
  endfacet
  facet normal 0 0 -1
    outer loop
      vertex 12.7 0 0
      vertex 0 0 0
      vertex 12.7 6.34999 0
    endloop
  endfacet
  facet normal 0 0 -1
    outer loop
      vertex 12.7 -5.08 0
      vertex 0 0 0
      vertex 12.7 0 0
    endloop
  endfacet
  facet normal 0 0 -1
    outer loop
      vertex -12.7 -5.08 0
      vertex 0 0 0
      vertex 12.7 -5.08 0
    endloop
  endfacet
  facet normal -0 0 -1
    outer loop
      vertex 0 0 0
      vertex -12.7 -5.08 0
      vertex -12.7 0 0
    endloop
  endfacet
  facet normal 0 0 -1
    outer loop
      vertex 0 0 0
      vertex -12.7 0 0
      vertex -12.7 6.34999 0
    endloop
  endfacet
  facet normal -1 0 0
    outer loop
      vertex -12.7 -5.08 0
      vertex -12.7 0 15.24
      vertex -12.7 0 0
    endloop
  endfacet
  facet normal -1 -0 0
    outer loop
      vertex -12.7 0 15.24
      vertex -12.7 -5.08 0
      vertex -12.7 -5.08 15.24
    endloop
  endfacet
  facet normal 0 -1 0
    outer loop
      vertex -12.7 -5.08 0
      vertex 12.7 -5.08 15.24
      vertex -12.7 -5.08 15.24
    endloop
  endfacet
  facet normal 0 -1 -0
    outer loop
      vertex 12.7 -5.08 15.24
      vertex -12.7 -5.08 0
      vertex 12.7 -5.08 0
    endloop
  endfacet
  facet normal 0.447213 0.894427 -0
    outer loop
      vertex 0 0 0
      vertex -12.7 6.34999 15.24
      vertex 0 0 15.24
    endloop
  endfacet
  facet normal 0.447213 0.894427 0
    outer loop
      vertex -12.7 6.34999 15.24
      vertex 0 0 0
      vertex -12.7 6.34999 0
    endloop
  endfacet
  facet normal -1 0 0
    outer loop
      vertex -12.7 0 0
      vertex -12.7 6.34999 15.24
      vertex -12.7 6.34999 0
    endloop
  endfacet
  facet normal -1 -0 0
    outer loop
      vertex -12.7 6.34999 15.24
      vertex -12.7 0 0
      vertex -12.7 0 15.24
    endloop
  endfacet
  facet normal 1 -0 0
    outer loop
      vertex 12.7 0 15.24
      vertex 12.7 6.34999 0
      vertex 12.7 6.34999 15.24
    endloop
  endfacet
  facet normal 1 0 0
    outer loop
      vertex 12.7 6.34999 0
      vertex 12.7 0 15.24
      vertex 12.7 0 0
    endloop
  endfacet
  facet normal -0.447213 0.894427 0
    outer loop
      vertex 12.7 6.34999 0
      vertex 0 0 15.24
      vertex 12.7 6.34999 15.24
    endloop
  endfacet
  facet normal -0.447213 0.894427 0
    outer loop
      vertex 0 0 15.24
      vertex 12.7 6.34999 0
      vertex 0 0 0
    endloop
  endfacet
endsolid OpenSCAD_Model
